STARTFONT 2.1
COMMENT
COMMENT Converted from OpenType font "BrandonGrotesque-Bold.ttf" by "otf2bdf 3.0".
COMMENT
FONT -FreeType-Brandon Grotesque Bold-Medium-R-Normal--21-200-75-75-P-95-ISO10646-1
SIZE 20 75 75
FONTBOUNDINGBOX 23 31 -3 -8
STARTPROPERTIES 19
FOUNDRY "FreeType"
FAMILY_NAME "Brandon Grotesque Bold"
WEIGHT_NAME "Medium"
SLANT "R"
SETWIDTH_NAME "Normal"
ADD_STYLE_NAME ""
PIXEL_SIZE 21
POINT_SIZE 200
RESOLUTION_X 75
RESOLUTION_Y 75
SPACING "P"
AVERAGE_WIDTH 95
CHARSET_REGISTRY "ISO10646"
CHARSET_ENCODING "1"
FONT_ASCENT 22
FONT_DESCENT 7
COPYRIGHT "Copyright (c) 2009 by Hannes von Doehren. All rights reserved."
_OTF_FONTFILE "BrandonGrotesque-Bold.ttf"
_OTF_PSNAME "BrandonGrotesque-Bold"
ENDPROPERTIES
CHARS 413
STARTCHAR 0020
ENCODING 32
SWIDTH 240 0
DWIDTH 5 0
BBX 0 0 0 0
BITMAP
ENDCHAR
STARTCHAR 0021
ENCODING 33
SWIDTH 336 0
DWIDTH 7 0
BBX 3 15 2 0
BITMAP
E0
E0
E0
E0
E0
E0
60
40
40
00
00
40
E0
E0
40
ENDCHAR
STARTCHAR 0022
ENCODING 34
SWIDTH 336 0
DWIDTH 7 0
BBX 6 4 1 11
BITMAP
DC
DC
D8
D8
ENDCHAR
STARTCHAR 0023
ENCODING 35
SWIDTH 528 0
DWIDTH 11 0
BBX 10 15 1 0
BITMAP
1080
1080
1100
1100
1100
7FC0
3100
2100
2100
2300
FF80
2200
2200
2200
4200
ENDCHAR
STARTCHAR 0024
ENCODING 36
SWIDTH 528 0
DWIDTH 11 0
BBX 9 20 1 -3
BITMAP
0800
3C00
7F00
FF80
C900
C800
E800
F800
7E00
3F00
0F80
0B80
0980
C980
FB80
FF00
3E00
0800
0800
0800
ENDCHAR
STARTCHAR 0025
ENCODING 37
SWIDTH 720 0
DWIDTH 15 0
BBX 13 15 1 0
BITMAP
7860
FC60
CCC0
FCC0
7980
0180
0300
0300
0600
06E0
0DF8
0D98
1998
19F8
30F0
ENDCHAR
STARTCHAR 0026
ENCODING 38
SWIDTH 720 0
DWIDTH 15 0
BBX 13 15 2 0
BITMAP
1E00
3F00
7B80
6180
6180
3300
3E00
3E30
7F70
E7E0
C3E0
C1E0
F7F0
7FF8
3E30
ENDCHAR
STARTCHAR 0027
ENCODING 39
SWIDTH 192 0
DWIDTH 4 0
BBX 2 4 1 11
BITMAP
C0
C0
C0
C0
ENDCHAR
STARTCHAR 0028
ENCODING 40
SWIDTH 336 0
DWIDTH 7 0
BBX 6 17 1 -2
BITMAP
1C
3C
70
60
E0
E0
C0
C0
C0
C0
C0
E0
E0
60
70
3C
1C
ENDCHAR
STARTCHAR 0029
ENCODING 41
SWIDTH 336 0
DWIDTH 7 0
BBX 5 17 1 -2
BITMAP
C0
F0
70
38
38
18
18
18
18
18
18
18
38
38
70
E0
C0
ENDCHAR
STARTCHAR 002A
ENCODING 42
SWIDTH 336 0
DWIDTH 7 0
BBX 5 7 1 8
BITMAP
20
A8
F8
70
F8
A8
20
ENDCHAR
STARTCHAR 002B
ENCODING 43
SWIDTH 528 0
DWIDTH 11 0
BBX 9 9 1 3
BITMAP
0C00
0C00
0C00
FF80
FF80
0C00
0C00
0C00
0C00
ENDCHAR
STARTCHAR 002C
ENCODING 44
SWIDTH 288 0
DWIDTH 6 0
BBX 4 8 1 -4
BITMAP
60
F0
F0
70
30
30
60
40
ENDCHAR
STARTCHAR 002D
ENCODING 45
SWIDTH 336 0
DWIDTH 7 0
BBX 5 2 1 4
BITMAP
F8
F8
ENDCHAR
STARTCHAR 002E
ENCODING 46
SWIDTH 240 0
DWIDTH 5 0
BBX 3 4 1 0
BITMAP
40
E0
E0
40
ENDCHAR
STARTCHAR 002F
ENCODING 47
SWIDTH 336 0
DWIDTH 7 0
BBX 6 15 1 0
BITMAP
0C
1C
18
18
38
38
30
30
70
60
60
E0
E0
C0
C0
ENDCHAR
STARTCHAR 0030
ENCODING 48
SWIDTH 624 0
DWIDTH 13 0
BBX 10 15 1 0
BITMAP
1E00
3F80
7B80
61C0
E0C0
C0C0
C0C0
C0C0
C0C0
C0C0
E0C0
61C0
7B80
3F80
1E00
ENDCHAR
STARTCHAR 0031
ENCODING 49
SWIDTH 336 0
DWIDTH 7 0
BBX 4 15 1 0
BITMAP
30
70
F0
F0
30
30
30
30
30
30
30
30
30
30
30
ENDCHAR
STARTCHAR 0032
ENCODING 50
SWIDTH 528 0
DWIDTH 11 0
BBX 9 15 1 0
BITMAP
1E00
7F00
7780
4180
0180
0380
0300
0700
0E00
0E00
1C00
3800
7000
FF80
FF80
ENDCHAR
STARTCHAR 0033
ENCODING 51
SWIDTH 528 0
DWIDTH 11 0
BBX 9 15 1 0
BITMAP
3C00
7F00
E700
4300
0300
0700
3E00
3E00
0700
0380
0180
4380
F780
7F00
3E00
ENDCHAR
STARTCHAR 0034
ENCODING 52
SWIDTH 624 0
DWIDTH 13 0
BBX 11 15 1 0
BITMAP
0180
0380
0380
0780
0F80
1D80
3980
3980
7180
E180
FFE0
FFE0
0180
0180
0180
ENDCHAR
STARTCHAR 0035
ENCODING 53
SWIDTH 528 0
DWIDTH 11 0
BBX 9 15 1 0
BITMAP
FF00
FF00
C000
C000
C000
FC00
FF00
0700
0380
0180
0180
4380
F700
FF00
3C00
ENDCHAR
STARTCHAR 0036
ENCODING 54
SWIDTH 528 0
DWIDTH 11 0
BBX 9 16 1 0
BITMAP
0200
0F00
1E00
3800
7000
6000
FE00
FF00
F780
E180
C180
C180
E180
7780
7F00
1E00
ENDCHAR
STARTCHAR 0037
ENCODING 55
SWIDTH 480 0
DWIDTH 10 0
BBX 9 15 1 0
BITMAP
FF80
FF80
0300
0700
0600
0E00
0C00
1C00
1C00
1800
3800
3000
7000
6000
E000
ENDCHAR
STARTCHAR 0038
ENCODING 56
SWIDTH 528 0
DWIDTH 11 0
BBX 9 15 1 0
BITMAP
1E00
3F00
7380
6180
6180
6180
7F00
3F00
7F00
E180
C180
C180
F380
7F00
3E00
ENDCHAR
STARTCHAR 0039
ENCODING 57
SWIDTH 528 0
DWIDTH 11 0
BBX 9 16 1 -1
BITMAP
1E00
7F00
7700
E380
C180
C180
E180
F780
7F80
3F80
0300
0700
0E00
3C00
3800
2000
ENDCHAR
STARTCHAR 003A
ENCODING 58
SWIDTH 240 0
DWIDTH 5 0
BBX 3 9 1 0
BITMAP
E0
E0
E0
00
00
00
E0
E0
E0
ENDCHAR
STARTCHAR 003B
ENCODING 59
SWIDTH 240 0
DWIDTH 5 0
BBX 3 12 1 -4
BITMAP
E0
E0
E0
00
00
00
00
E0
E0
20
20
40
ENDCHAR
STARTCHAR 003C
ENCODING 60
SWIDTH 432 0
DWIDTH 9 0
BBX 8 10 0 0
BITMAP
03
07
1E
3C
F0
F0
3C
0F
07
01
ENDCHAR
STARTCHAR 003D
ENCODING 61
SWIDTH 480 0
DWIDTH 10 0
BBX 8 7 1 3
BITMAP
FF
FF
00
00
00
FF
FF
ENDCHAR
STARTCHAR 003E
ENCODING 62
SWIDTH 432 0
DWIDTH 9 0
BBX 8 10 1 0
BITMAP
C0
E0
78
3C
0F
0F
3C
F0
E0
80
ENDCHAR
STARTCHAR 003F
ENCODING 63
SWIDTH 480 0
DWIDTH 10 0
BBX 8 15 1 0
BITMAP
3C
7E
EF
43
07
0E
1C
18
18
00
00
18
3C
3C
18
ENDCHAR
STARTCHAR 0040
ENCODING 64
SWIDTH 1008 0
DWIDTH 21 0
BBX 19 21 1 -6
BITMAP
01F800
07FE00
1F1F80
3C0380
3001C0
7000C0
61E8E0
E3F860
C77860
C61860
C61860
C618E0
C73DC0
E3FFC0
61E700
700000
300000
3C0000
1E0000
0E0000
020000
ENDCHAR
STARTCHAR 0041
ENCODING 65
SWIDTH 672 0
DWIDTH 14 0
BBX 14 15 0 0
BITMAP
0300
0300
0700
0780
0780
0FC0
0CC0
1CE0
1860
3870
3FF0
7FF0
7038
E018
E01C
ENDCHAR
STARTCHAR 0042
ENCODING 66
SWIDTH 624 0
DWIDTH 13 0
BBX 10 15 2 0
BITMAP
FE00
FF00
C780
C180
C180
C380
FF00
FF00
C780
C1C0
C1C0
C1C0
C3C0
FF80
FF00
ENDCHAR
STARTCHAR 0043
ENCODING 67
SWIDTH 672 0
DWIDTH 14 0
BBX 12 15 1 0
BITMAP
07C0
1FF0
3EF0
7800
7000
E000
E000
E000
E000
E000
7000
7800
3EF0
1FF0
07C0
ENDCHAR
STARTCHAR 0044
ENCODING 68
SWIDTH 720 0
DWIDTH 15 0
BBX 12 15 2 0
BITMAP
FF00
FF80
C3C0
C0E0
C070
C030
C030
C030
C030
C030
C070
C0E0
C3C0
FF80
FF00
ENDCHAR
STARTCHAR 0045
ENCODING 69
SWIDTH 624 0
DWIDTH 13 0
BBX 10 15 2 0
BITMAP
FFC0
FFC0
C000
C000
C000
C000
FF80
FF80
C000
C000
C000
C000
C000
FFC0
FFC0
ENDCHAR
STARTCHAR 0046
ENCODING 70
SWIDTH 576 0
DWIDTH 12 0
BBX 10 15 2 0
BITMAP
FFC0
FFC0
C000
C000
C000
C000
FF80
FF80
C000
C000
C000
C000
C000
C000
C000
ENDCHAR
STARTCHAR 0047
ENCODING 71
SWIDTH 672 0
DWIDTH 14 0
BBX 12 15 1 0
BITMAP
07C0
1FF0
3EF0
7800
7000
E000
E000
E0F0
E0F0
E030
7030
7830
3EF0
1FF0
0FC0
ENDCHAR
STARTCHAR 0048
ENCODING 72
SWIDTH 768 0
DWIDTH 16 0
BBX 12 15 2 0
BITMAP
C030
C030
C030
C030
C030
C030
FFF0
FFF0
C030
C030
C030
C030
C030
C030
C030
ENDCHAR
STARTCHAR 0049
ENCODING 73
SWIDTH 288 0
DWIDTH 6 0
BBX 2 15 2 0
BITMAP
C0
C0
C0
C0
C0
C0
C0
C0
C0
C0
C0
C0
C0
C0
C0
ENDCHAR
STARTCHAR 004A
ENCODING 74
SWIDTH 384 0
DWIDTH 8 0
BBX 7 15 -1 0
BITMAP
06
06
06
06
06
06
06
06
06
06
06
06
6E
FC
78
ENDCHAR
STARTCHAR 004B
ENCODING 75
SWIDTH 624 0
DWIDTH 13 0
BBX 11 15 2 0
BITMAP
C1C0
C3C0
C380
C700
CE00
DC00
F800
F800
DC00
DE00
CF00
C700
C380
C1C0
C1E0
ENDCHAR
STARTCHAR 004C
ENCODING 76
SWIDTH 528 0
DWIDTH 11 0
BBX 9 15 2 0
BITMAP
C000
C000
C000
C000
C000
C000
C000
C000
C000
C000
C000
C000
FF00
FF80
FF80
ENDCHAR
STARTCHAR 004D
ENCODING 77
SWIDTH 864 0
DWIDTH 18 0
BBX 16 15 1 0
BITMAP
3004
300C
380C
381C
381C
7C3E
7C3E
7E7E
7666
67E6
63E7
E3C7
E1C7
E187
E183
ENDCHAR
STARTCHAR 004E
ENCODING 78
SWIDTH 768 0
DWIDTH 16 0
BBX 12 15 2 0
BITMAP
8030
C030
E030
F030
F830
FC30
DE30
CF30
C7B0
C3F0
C1F0
C0F0
C070
C030
C010
ENDCHAR
STARTCHAR 004F
ENCODING 79
SWIDTH 816 0
DWIDTH 17 0
BBX 15 15 1 0
BITMAP
07C0
1FF0
3EF8
701C
600C
E00E
C006
C006
C006
E00E
600C
701C
3EF8
1FF0
07C0
ENDCHAR
STARTCHAR 0050
ENCODING 80
SWIDTH 624 0
DWIDTH 13 0
BBX 10 15 2 0
BITMAP
FE00
FF80
C380
C1C0
C0C0
C0C0
C1C0
FF80
FF00
C000
C000
C000
C000
C000
C000
ENDCHAR
STARTCHAR 0051
ENCODING 81
SWIDTH 816 0
DWIDTH 17 0
BBX 15 19 1 -4
BITMAP
07C0
1FF0
3EF8
701C
600C
E00E
C006
C006
C006
E00E
600C
701C
3EF8
1FF0
07E0
0070
0038
0038
001C
ENDCHAR
STARTCHAR 0052
ENCODING 82
SWIDTH 672 0
DWIDTH 14 0
BBX 11 15 2 0
BITMAP
FF80
FFC0
C1E0
C060
C060
C0E0
FFC0
FF80
C700
C380
C380
C1C0
C1C0
C0E0
C0E0
ENDCHAR
STARTCHAR 0053
ENCODING 83
SWIDTH 576 0
DWIDTH 12 0
BBX 10 15 1 0
BITMAP
3E00
7F00
F700
C100
C000
F000
7C00
3F00
0F80
03C0
01C0
41C0
77C0
7F80
1F00
ENDCHAR
STARTCHAR 0054
ENCODING 84
SWIDTH 576 0
DWIDTH 12 0
BBX 10 15 1 0
BITMAP
FFC0
FFC0
0C00
0C00
0C00
0C00
0C00
0C00
0C00
0C00
0C00
0C00
0C00
0C00
0C00
ENDCHAR
STARTCHAR 0055
ENCODING 85
SWIDTH 720 0
DWIDTH 15 0
BBX 11 15 2 0
BITMAP
C060
C060
C060
C060
C060
C060
C060
C060
C060
C060
C060
E0E0
7BC0
3F80
1F00
ENDCHAR
STARTCHAR 0056
ENCODING 86
SWIDTH 672 0
DWIDTH 14 0
BBX 14 15 0 0
BITMAP
E01C
E038
7038
7030
3870
3870
1CE0
1CE0
0DC0
0FC0
0780
0780
0700
0300
0300
ENDCHAR
STARTCHAR 0057
ENCODING 87
SWIDTH 912 0
DWIDTH 19 0
BBX 17 15 1 0
BITMAP
C08380
E18380
E1C380
E1C300
63E700
736700
776600
367600
363E00
3E3E00
3C3C00
1C1C00
1C1C00
180C00
180800
ENDCHAR
STARTCHAR 0058
ENCODING 88
SWIDTH 624 0
DWIDTH 13 0
BBX 12 15 1 0
BITMAP
E0E0
F0E0
71C0
3BC0
3B80
1F00
1F00
0E00
1F00
1F80
3B80
79C0
71C0
E0E0
E0F0
ENDCHAR
STARTCHAR 0059
ENCODING 89
SWIDTH 576 0
DWIDTH 12 0
BBX 12 15 0 0
BITMAP
E070
70E0
70E0
39C0
1D80
1F80
0F00
0600
0600
0600
0600
0600
0600
0600
0600
ENDCHAR
STARTCHAR 005A
ENCODING 90
SWIDTH 576 0
DWIDTH 12 0
BBX 10 15 1 0
BITMAP
FFC0
FFC0
0380
0380
0700
0600
0E00
0C00
1C00
3800
3800
7000
7000
FFC0
FFC0
ENDCHAR
STARTCHAR 005B
ENCODING 91
SWIDTH 336 0
DWIDTH 7 0
BBX 6 22 1 -7
BITMAP
FC
FC
C0
C0
C0
C0
C0
C0
C0
C0
C0
C0
C0
C0
C0
C0
C0
C0
C0
C0
FC
FC
ENDCHAR
STARTCHAR 005C
ENCODING 92
SWIDTH 336 0
DWIDTH 7 0
BBX 7 15 0 0
BITMAP
E0
60
60
70
30
30
38
38
18
18
1C
0C
0C
0E
0E
ENDCHAR
STARTCHAR 005D
ENCODING 93
SWIDTH 384 0
DWIDTH 8 0
BBX 5 22 1 -7
BITMAP
F8
F8
18
18
18
18
18
18
18
18
18
18
18
18
18
18
18
18
18
18
F8
F8
ENDCHAR
STARTCHAR 005E
ENCODING 94
SWIDTH 528 0
DWIDTH 11 0
BBX 9 7 1 8
BITMAP
0800
1C00
3C00
3600
7700
E380
C180
ENDCHAR
STARTCHAR 005F
ENCODING 95
SWIDTH 480 0
DWIDTH 10 0
BBX 8 2 1 -2
BITMAP
FF
FF
ENDCHAR
STARTCHAR 0060
ENCODING 96
SWIDTH 288 0
DWIDTH 6 0
BBX 5 3 1 11
BITMAP
C0
F0
38
ENDCHAR
STARTCHAR 0061
ENCODING 97
SWIDTH 432 0
DWIDTH 9 0
BBX 7 9 1 0
BITMAP
7C
7E
6E
3E
FE
C6
C6
FE
7E
ENDCHAR
STARTCHAR 0062
ENCODING 98
SWIDTH 480 0
DWIDTH 10 0
BBX 8 15 1 0
BITMAP
C0
C0
C0
C0
C0
C0
FC
FE
E7
C3
C3
C3
F7
FE
9C
ENDCHAR
STARTCHAR 0063
ENCODING 99
SWIDTH 432 0
DWIDTH 9 0
BBX 7 9 1 0
BITMAP
3C
7E
F6
E0
C0
C0
F6
7E
3C
ENDCHAR
STARTCHAR 0064
ENCODING 100
SWIDTH 528 0
DWIDTH 11 0
BBX 8 15 1 0
BITMAP
03
03
03
03
03
03
3F
7F
F7
E3
C3
C3
F7
7F
3D
ENDCHAR
STARTCHAR 0065
ENCODING 101
SWIDTH 480 0
DWIDTH 10 0
BBX 8 9 1 0
BITMAP
3C
7E
E7
FF
FF
C0
F6
7E
3C
ENDCHAR
STARTCHAR 0066
ENCODING 102
SWIDTH 384 0
DWIDTH 8 0
BBX 7 15 1 0
BITMAP
1E
3E
76
60
60
60
FC
FC
60
60
60
60
60
60
60
ENDCHAR
STARTCHAR 0067
ENCODING 103
SWIDTH 528 0
DWIDTH 11 0
BBX 9 16 1 -7
BITMAP
1F80
3F80
7700
6300
6300
7700
7F00
FE00
C000
FF00
7F80
7380
6180
7780
7F00
3E00
ENDCHAR
STARTCHAR 0068
ENCODING 104
SWIDTH 480 0
DWIDTH 10 0
BBX 8 15 1 0
BITMAP
C0
C0
C0
C0
C0
C0
DC
FE
F7
C3
C3
C3
C3
C3
C3
ENDCHAR
STARTCHAR 0069
ENCODING 105
SWIDTH 192 0
DWIDTH 4 0
BBX 2 15 1 0
BITMAP
C0
C0
C0
00
00
00
C0
C0
C0
C0
C0
C0
C0
C0
C0
ENDCHAR
STARTCHAR 006A
ENCODING 106
SWIDTH 192 0
DWIDTH 4 0
BBX 6 22 -3 -7
BITMAP
0C
0C
0C
00
00
00
0C
0C
0C
0C
0C
0C
0C
0C
0C
0C
0C
0C
0C
5C
FC
78
ENDCHAR
STARTCHAR 006B
ENCODING 107
SWIDTH 480 0
DWIDTH 10 0
BBX 9 15 1 0
BITMAP
C000
C000
C000
C000
C000
C000
C700
CE00
DC00
F800
F800
DC00
CE00
CF00
C780
ENDCHAR
STARTCHAR 006C
ENCODING 108
SWIDTH 240 0
DWIDTH 5 0
BBX 2 15 1 0
BITMAP
C0
C0
C0
C0
C0
C0
C0
C0
C0
C0
C0
C0
C0
C0
C0
ENDCHAR
STARTCHAR 006D
ENCODING 109
SWIDTH 768 0
DWIDTH 16 0
BBX 14 9 1 0
BITMAP
9CF0
FFF8
FF9C
C30C
C30C
C30C
C30C
C30C
C30C
ENDCHAR
STARTCHAR 006E
ENCODING 110
SWIDTH 480 0
DWIDTH 10 0
BBX 8 9 1 0
BITMAP
9E
FF
F7
C3
C3
C3
C3
C3
C3
ENDCHAR
STARTCHAR 006F
ENCODING 111
SWIDTH 480 0
DWIDTH 10 0
BBX 8 9 1 0
BITMAP
3C
7E
F7
C3
C3
C3
F7
7E
3C
ENDCHAR
STARTCHAR 0070
ENCODING 112
SWIDTH 480 0
DWIDTH 10 0
BBX 8 16 1 -7
BITMAP
BC
FE
F7
C3
C3
C3
E7
FE
FC
C0
C0
C0
C0
C0
C0
C0
ENDCHAR
STARTCHAR 0071
ENCODING 113
SWIDTH 528 0
DWIDTH 11 0
BBX 8 16 1 -7
BITMAP
3D
7F
F7
E3
C3
C3
F7
7F
3F
03
03
03
03
03
03
03
ENDCHAR
STARTCHAR 0072
ENCODING 114
SWIDTH 336 0
DWIDTH 7 0
BBX 6 9 1 0
BITMAP
BC
F8
E8
C0
C0
C0
C0
C0
C0
ENDCHAR
STARTCHAR 0073
ENCODING 115
SWIDTH 336 0
DWIDTH 7 0
BBX 6 9 0 0
BITMAP
78
7C
68
60
38
0C
4C
FC
78
ENDCHAR
STARTCHAR 0074
ENCODING 116
SWIDTH 384 0
DWIDTH 8 0
BBX 6 12 1 0
BITMAP
60
60
60
FC
FC
60
60
60
60
78
7C
38
ENDCHAR
STARTCHAR 0075
ENCODING 117
SWIDTH 480 0
DWIDTH 10 0
BBX 8 9 1 0
BITMAP
C3
C3
C3
C3
C3
C3
E7
7F
3F
ENDCHAR
STARTCHAR 0076
ENCODING 118
SWIDTH 432 0
DWIDTH 9 0
BBX 9 9 0 0
BITMAP
E380
6300
7700
3600
3E00
3C00
1C00
1800
0800
ENDCHAR
STARTCHAR 0077
ENCODING 119
SWIDTH 624 0
DWIDTH 13 0
BBX 12 9 0 0
BITMAP
E230
6730
6770
7FE0
3DE0
39E0
38E0
10C0
1040
ENDCHAR
STARTCHAR 0078
ENCODING 120
SWIDTH 432 0
DWIDTH 9 0
BBX 9 9 0 0
BITMAP
6380
7700
3F00
1E00
1C00
3E00
3F00
7700
E380
ENDCHAR
STARTCHAR 0079
ENCODING 121
SWIDTH 480 0
DWIDTH 10 0
BBX 10 16 0 -7
BITMAP
E1C0
6380
7380
7300
3700
3E00
1E00
1E00
0C00
1C00
1800
3800
3000
7000
7000
6000
ENDCHAR
STARTCHAR 007A
ENCODING 122
SWIDTH 384 0
DWIDTH 8 0
BBX 6 9 1 0
BITMAP
FC
FC
18
38
30
70
60
FC
FC
ENDCHAR
STARTCHAR 007B
ENCODING 123
SWIDTH 384 0
DWIDTH 8 0
BBX 8 22 0 -7
BITMAP
07
1F
1C
38
30
30
30
30
30
30
E0
E0
30
30
30
30
30
30
38
1C
1F
07
ENDCHAR
STARTCHAR 007C
ENCODING 124
SWIDTH 144 0
DWIDTH 3 0
BBX 1 23 1 -7
BITMAP
80
80
80
80
80
80
80
80
80
80
80
80
80
80
80
80
80
80
80
80
80
80
80
ENDCHAR
STARTCHAR 007D
ENCODING 125
SWIDTH 432 0
DWIDTH 9 0
BBX 8 22 1 -7
BITMAP
E0
F0
78
38
18
18
18
18
18
1C
0E
0F
1C
18
18
18
18
18
38
78
F0
E0
ENDCHAR
STARTCHAR 007E
ENCODING 126
SWIDTH 528 0
DWIDTH 11 0
BBX 9 4 1 4
BITMAP
7080
FD80
DF80
8700
ENDCHAR
STARTCHAR 00A0
ENCODING 160
SWIDTH 240 0
DWIDTH 5 0
BBX 0 0 0 0
BITMAP
ENDCHAR
STARTCHAR 00A1
ENCODING 161
SWIDTH 240 0
DWIDTH 5 0
BBX 3 16 1 -7
BITMAP
40
E0
E0
40
00
00
00
40
40
C0
E0
E0
E0
E0
E0
E0
ENDCHAR
STARTCHAR 00A2
ENCODING 162
SWIDTH 432 0
DWIDTH 9 0
BBX 7 12 1 -2
BITMAP
04
3C
7E
FE
E8
C8
D8
F6
7E
3C
20
20
ENDCHAR
STARTCHAR 00A3
ENCODING 163
SWIDTH 480 0
DWIDTH 10 0
BBX 9 15 0 0
BITMAP
1E00
3F80
7B00
6000
6000
7000
7000
FE00
3000
3000
3000
3000
3000
7F80
7F80
ENDCHAR
STARTCHAR 00A4
ENCODING 164
SWIDTH 480 0
DWIDTH 10 0
BBX 7 8 1 3
BITMAP
02
FE
7E
66
66
7E
7E
42
ENDCHAR
STARTCHAR 00A5
ENCODING 165
SWIDTH 624 0
DWIDTH 13 0
BBX 12 15 0 0
BITMAP
E070
70F0
70E0
39C0
1DC0
1F80
0F00
0700
0600
3FC0
0600
3FC0
0600
0600
0600
ENDCHAR
STARTCHAR 00A6
ENCODING 166
SWIDTH 336 0
DWIDTH 7 0
BBX 1 23 3 -7
BITMAP
80
80
80
80
80
80
80
80
00
00
00
00
00
00
00
80
80
80
80
80
80
80
80
ENDCHAR
STARTCHAR 00A7
ENCODING 167
SWIDTH 528 0
DWIDTH 11 0
BBX 9 21 1 -6
BITMAP
3E00
7F00
F700
C000
C000
E000
7C00
7E00
EF00
C780
C380
E380
7F00
3F00
0F00
0780
0380
4380
F780
FF00
3E00
ENDCHAR
STARTCHAR 00A8
ENCODING 168
SWIDTH 432 0
DWIDTH 9 0
BBX 7 2 1 12
BITMAP
C6
C6
ENDCHAR
STARTCHAR 00A9
ENCODING 169
SWIDTH 816 0
DWIDTH 17 0
BBX 15 16 1 0
BITMAP
07C0
1FF0
3838
701C
63CC
C7C6
CEC6
CC06
CC06
CE06
CFC6
67CC
701C
3838
1FF0
07C0
ENDCHAR
STARTCHAR 00AA
ENCODING 170
SWIDTH 336 0
DWIDTH 7 0
BBX 6 6 1 9
BITMAP
78
48
78
CC
DC
FC
ENDCHAR
STARTCHAR 00AB
ENCODING 171
SWIDTH 480 0
DWIDTH 10 0
BBX 8 8 1 1
BITMAP
33
67
EE
CE
EE
EE
66
33
ENDCHAR
STARTCHAR 00AC
ENCODING 172
SWIDTH 528 0
DWIDTH 11 0
BBX 9 6 1 3
BITMAP
FF80
FF80
0180
0180
0180
0180
ENDCHAR
STARTCHAR 00AD
ENCODING 173
SWIDTH 336 0
DWIDTH 7 0
BBX 5 2 1 4
BITMAP
F8
F8
ENDCHAR
STARTCHAR 00AE
ENCODING 174
SWIDTH 816 0
DWIDTH 17 0
BBX 15 16 1 0
BITMAP
07C0
1FF0
3838
701C
67CC
C7E6
C6E6
C666
C7E6
C7C6
C6C6
66CC
701C
3838
1FF0
07C0
ENDCHAR
STARTCHAR 00AF
ENCODING 175
SWIDTH 384 0
DWIDTH 8 0
BBX 6 2 1 13
BITMAP
FC
FC
ENDCHAR
STARTCHAR 00B0
ENCODING 176
SWIDTH 384 0
DWIDTH 8 0
BBX 6 6 1 10
BITMAP
78
FC
FC
FC
FC
78
ENDCHAR
STARTCHAR 00B1
ENCODING 177
SWIDTH 528 0
DWIDTH 11 0
BBX 9 12 1 1
BITMAP
0C00
0C00
0C00
FF80
FF80
0C00
0C00
0C00
0000
0000
FF80
FF80
ENDCHAR
STARTCHAR 00B2
ENCODING 178
SWIDTH 288 0
DWIDTH 6 0
BBX 5 6 1 11
BITMAP
70
78
18
30
60
F8
ENDCHAR
STARTCHAR 00B3
ENCODING 179
SWIDTH 240 0
DWIDTH 5 0
BBX 4 6 1 11
BITMAP
E0
B0
E0
30
F0
E0
ENDCHAR
STARTCHAR 00B4
ENCODING 180
SWIDTH 288 0
DWIDTH 6 0
BBX 5 3 1 11
BITMAP
10
78
E0
ENDCHAR
STARTCHAR 00B5
ENCODING 181
SWIDTH 528 0
DWIDTH 11 0
BBX 8 16 1 -7
BITMAP
C3
C3
C3
C3
C3
C3
F7
FF
FB
C0
C0
C0
C0
C0
C0
C0
ENDCHAR
STARTCHAR 00B6
ENCODING 182
SWIDTH 720 0
DWIDTH 15 0
BBX 14 22 1 -7
BITMAP
3FF8
7FFC
FE30
FE30
FE30
FE30
FE30
7E30
3E30
0E30
0630
0630
0630
0630
0630
0630
0630
0630
0630
0630
0630
0630
ENDCHAR
STARTCHAR 00B7
ENCODING 183
SWIDTH 288 0
DWIDTH 6 0
BBX 4 4 1 4
BITMAP
60
F0
F0
60
ENDCHAR
STARTCHAR 00B8
ENCODING 184
SWIDTH 240 0
DWIDTH 5 0
BBX 4 5 0 -5
BITMAP
40
60
30
30
E0
ENDCHAR
STARTCHAR 00B9
ENCODING 185
SWIDTH 240 0
DWIDTH 5 0
BBX 3 6 1 11
BITMAP
60
E0
60
60
60
60
ENDCHAR
STARTCHAR 00BA
ENCODING 186
SWIDTH 336 0
DWIDTH 7 0
BBX 5 6 1 9
BITMAP
70
D8
D8
D8
D8
70
ENDCHAR
STARTCHAR 00BB
ENCODING 187
SWIDTH 480 0
DWIDTH 10 0
BBX 8 8 1 1
BITMAP
CC
EE
66
77
77
66
EE
CC
ENDCHAR
STARTCHAR 00BC
ENCODING 188
SWIDTH 672 0
DWIDTH 14 0
BBX 12 16 1 0
BITMAP
60C0
E180
6180
6300
6300
6600
6600
0400
0C00
0C00
1860
18E0
3160
33F0
6060
6060
ENDCHAR
STARTCHAR 00BD
ENCODING 189
SWIDTH 672 0
DWIDTH 14 0
BBX 12 15 1 0
BITMAP
60C0
E180
6180
6300
6300
6600
6600
0C00
0C00
19F0
1830
3070
3060
60C0
61F0
ENDCHAR
STARTCHAR 00BE
ENCODING 190
SWIDTH 720 0
DWIDTH 15 0
BBX 14 15 0 0
BITMAP
7030
1860
7060
18C0
18C0
F180
0180
0300
0300
0618
0638
0C58
0CFC
1818
1018
ENDCHAR
STARTCHAR 00BF
ENCODING 191
SWIDTH 480 0
DWIDTH 10 0
BBX 8 16 1 -7
BITMAP
08
1C
1C
08
00
00
00
0C
1C
38
70
E0
E0
F7
7F
3C
ENDCHAR
STARTCHAR 00C0
ENCODING 192
SWIDTH 672 0
DWIDTH 14 0
BBX 14 20 0 1
BITMAP
0600
0780
0180
0000
0000
0300
0300
0700
0780
0780
0FC0
0CC0
1CE0
1860
3870
3FF0
7FF0
7038
E018
E01C
ENDCHAR
STARTCHAR 00C1
ENCODING 193
SWIDTH 672 0
DWIDTH 14 0
BBX 14 20 0 1
BITMAP
0180
0780
0600
0000
0000
0300
0300
0700
0780
0780
0FC0
0CC0
1CE0
1860
3870
3FF0
7FF0
7038
E018
E01C
ENDCHAR
STARTCHAR 00C2
ENCODING 194
SWIDTH 672 0
DWIDTH 14 0
BBX 14 20 0 0
BITMAP
0200
0780
0FC0
0840
0000
0300
0300
0700
0780
0780
0FC0
0CC0
1CE0
1860
3870
3FF0
7FF0
7038
E018
E01C
ENDCHAR
STARTCHAR 00C3
ENCODING 195
SWIDTH 672 0
DWIDTH 14 0
BBX 14 20 0 0
BITMAP
0E40
0FC0
0980
0000
0000
0300
0300
0700
0780
0780
0FC0
0CC0
1CE0
1860
3870
3FF0
7FF0
7038
E018
E01C
ENDCHAR
STARTCHAR 00C4
ENCODING 196
SWIDTH 624 0
DWIDTH 13 0
BBX 13 19 0 0
BITMAP
18C0
18C0
0000
0000
0200
0300
0700
0780
0F80
0D80
1DC0
1CC0
18E0
3860
3FF0
7FF0
6038
E038
E018
ENDCHAR
STARTCHAR 00C5
ENCODING 197
SWIDTH 672 0
DWIDTH 14 0
BBX 14 21 0 0
BITMAP
0300
0480
0480
0700
0000
0000
0200
0300
0300
0780
0780
0FC0
0CC0
1CE0
1CE0
3860
3FF0
3FF0
7038
6038
E01C
ENDCHAR
STARTCHAR 00C6
ENCODING 198
SWIDTH 912 0
DWIDTH 19 0
BBX 19 15 -1 0
BITMAP
007FE0
00FFE0
00E000
01E000
03E000
03E000
077FC0
067FC0
0E6000
1C6000
1FE000
3FE000
306000
707FE0
E07FE0
ENDCHAR
STARTCHAR 00C7
ENCODING 199
SWIDTH 720 0
DWIDTH 15 0
BBX 12 20 1 -5
BITMAP
07C0
1FF0
3EF0
7800
7000
E000
E000
E000
E000
E000
7000
7020
3CF0
1FF0
0FC0
0200
0380
00C0
00C0
0380
ENDCHAR
STARTCHAR 00C8
ENCODING 200
SWIDTH 624 0
DWIDTH 13 0
BBX 10 20 2 1
BITMAP
1800
1C00
0600
0000
0000
FFC0
FFC0
C000
C000
C000
C000
FF80
FF80
C000
C000
C000
C000
C000
FFC0
FFC0
ENDCHAR
STARTCHAR 00C9
ENCODING 201
SWIDTH 624 0
DWIDTH 13 0
BBX 10 20 2 1
BITMAP
0600
1E00
3800
0000
0000
FFC0
FFC0
C000
C000
C000
C000
FF80
FF80
C000
C000
C000
C000
C000
FFC0
FFC0
ENDCHAR
STARTCHAR 00CA
ENCODING 202
SWIDTH 624 0
DWIDTH 13 0
BBX 10 20 2 0
BITMAP
0800
3C00
7700
2200
0000
FFC0
FFC0
C000
C000
C000
C000
FF80
FF80
C000
C000
C000
C000
C000
FFC0
FFC0
ENDCHAR
STARTCHAR 00CB
ENCODING 203
SWIDTH 624 0
DWIDTH 13 0
BBX 10 19 2 0
BITMAP
6300
6300
0000
0000
FFC0
FFC0
C000
C000
C000
C000
FF00
FF00
C000
C000
C000
C000
C000
FFC0
FFC0
ENDCHAR
STARTCHAR 00CC
ENCODING 204
SWIDTH 288 0
DWIDTH 6 0
BBX 4 20 1 1
BITMAP
C0
F0
30
00
00
60
60
60
60
60
60
60
60
60
60
60
60
60
60
60
ENDCHAR
STARTCHAR 00CD
ENCODING 205
SWIDTH 288 0
DWIDTH 6 0
BBX 4 20 1 1
BITMAP
30
70
C0
00
00
60
60
60
60
60
60
60
60
60
60
60
60
60
60
60
ENDCHAR
STARTCHAR 00CE
ENCODING 206
SWIDTH 288 0
DWIDTH 6 0
BBX 6 20 0 0
BITMAP
30
78
EC
04
00
30
30
30
30
30
30
30
30
30
30
30
30
30
30
30
ENDCHAR
STARTCHAR 00CF
ENCODING 207
SWIDTH 288 0
DWIDTH 6 0
BBX 7 19 -1 0
BITMAP
E6
C6
00
00
18
18
18
18
18
18
18
18
18
18
18
18
18
18
18
ENDCHAR
STARTCHAR 00D0
ENCODING 208
SWIDTH 720 0
DWIDTH 15 0
BBX 13 15 1 0
BITMAP
7F80
7FC0
61E0
6070
6038
6018
6018
FE18
6018
6018
6038
6070
61E0
7FC0
7F80
ENDCHAR
STARTCHAR 00D1
ENCODING 209
SWIDTH 768 0
DWIDTH 16 0
BBX 12 20 2 0
BITMAP
0F80
1F80
1300
0000
0000
8030
C030
E030
F030
F830
FC30
DE30
CF30
C7B0
C3F0
C1F0
C0F0
C070
C030
C010
ENDCHAR
STARTCHAR 00D2
ENCODING 210
SWIDTH 816 0
DWIDTH 17 0
BBX 15 20 1 1
BITMAP
0700
0780
01C0
0000
0000
07C0
1FF0
3EF8
701C
600C
E00E
C006
C006
C006
E00E
600C
701C
3EF8
1FF0
07C0
ENDCHAR
STARTCHAR 00D3
ENCODING 211
SWIDTH 816 0
DWIDTH 17 0
BBX 15 20 1 1
BITMAP
0180
0380
0600
0000
0000
07C0
1FF0
3EF8
701C
600C
E00E
C006
C006
C006
E00E
600C
701C
3EF8
1FF0
07C0
ENDCHAR
STARTCHAR 00D4
ENCODING 212
SWIDTH 816 0
DWIDTH 17 0
BBX 15 20 1 0
BITMAP
0100
0380
06C0
0440
0000
07C0
1FF0
3EF8
701C
600C
E00E
C006
C006
C006
E00E
600C
701C
3EF8
1FF0
07C0
ENDCHAR
STARTCHAR 00D5
ENCODING 213
SWIDTH 816 0
DWIDTH 17 0
BBX 15 20 1 0
BITMAP
0760
0FC0
0DC0
0000
0000
07C0
1FF0
3EF8
701C
600C
E00E
C006
C006
C006
E00E
600C
701C
3EF8
1FF0
07C0
ENDCHAR
STARTCHAR 00D6
ENCODING 214
SWIDTH 816 0
DWIDTH 17 0
BBX 15 20 1 0
BITMAP
0C60
0C60
0000
0000
0000
07C0
1FF0
3EF8
701C
600C
E00E
C006
C006
C006
E00E
600C
701C
3EF8
1FF0
07C0
ENDCHAR
STARTCHAR 00D7
ENCODING 215
SWIDTH 480 0
DWIDTH 10 0
BBX 8 8 1 4
BITMAP
42
E6
7E
3C
3C
7E
E7
42
ENDCHAR
STARTCHAR 00D8
ENCODING 216
SWIDTH 816 0
DWIDTH 17 0
BBX 15 15 1 0
BITMAP
07E2
1FFC
3EFC
701C
602E
E06E
C0C6
C186
C306
E60E
FC0C
781C
7EF8
7FF0
8FC0
ENDCHAR
STARTCHAR 00D9
ENCODING 217
SWIDTH 720 0
DWIDTH 15 0
BBX 11 20 2 1
BITMAP
1C00
1E00
0300
0000
0000
C060
C060
C060
C060
C060
C060
C060
C060
C060
C060
C060
E0E0
7BC0
3F80
1F00
ENDCHAR
STARTCHAR 00DA
ENCODING 218
SWIDTH 720 0
DWIDTH 15 0
BBX 11 20 2 1
BITMAP
0700
0F00
1C00
0000
0000
C060
C060
C060
C060
C060
C060
C060
C060
C060
C060
C060
E0E0
7BC0
3F80
1F00
ENDCHAR
STARTCHAR 00DB
ENCODING 219
SWIDTH 720 0
DWIDTH 15 0
BBX 11 20 2 0
BITMAP
0400
0F00
1B80
1000
0000
C060
C060
C060
C060
C060
C060
C060
C060
C060
C060
C060
E0E0
7BC0
3F80
1F00
ENDCHAR
STARTCHAR 00DC
ENCODING 220
SWIDTH 720 0
DWIDTH 15 0
BBX 11 20 2 0
BITMAP
3180
3180
0000
0000
0000
C060
C060
C060
C060
C060
C060
C060
C060
C060
C060
C060
E0E0
7BC0
3F80
1F00
ENDCHAR
STARTCHAR 00DD
ENCODING 221
SWIDTH 576 0
DWIDTH 12 0
BBX 12 20 0 1
BITMAP
0300
0F00
0C00
0000
0000
E070
70E0
70E0
39C0
1D80
1F80
0F00
0600
0600
0600
0600
0600
0600
0600
0600
ENDCHAR
STARTCHAR 00DE
ENCODING 222
SWIDTH 624 0
DWIDTH 13 0
BBX 10 15 2 0
BITMAP
C000
C000
C000
FF00
FF80
C1C0
C0C0
C0C0
C1C0
C380
FF80
FE00
C000
C000
C000
ENDCHAR
STARTCHAR 00DF
ENCODING 223
SWIDTH 528 0
DWIDTH 11 0
BBX 9 15 1 0
BITMAP
1E00
7F00
7700
E300
C300
C600
CE00
CC00
CE00
C700
C380
C180
C780
CF80
CE00
ENDCHAR
STARTCHAR 00E0
ENCODING 224
SWIDTH 432 0
DWIDTH 9 0
BBX 7 15 1 0
BITMAP
20
78
1C
00
00
00
7C
7E
6E
3E
FE
C6
C6
FE
7E
ENDCHAR
STARTCHAR 00E1
ENCODING 225
SWIDTH 432 0
DWIDTH 9 0
BBX 7 15 1 0
BITMAP
0C
3C
70
00
00
00
7C
7E
6E
3E
FE
C6
C6
FE
7E
ENDCHAR
STARTCHAR 00E2
ENCODING 226
SWIDTH 432 0
DWIDTH 9 0
BBX 7 15 1 0
BITMAP
18
3C
6E
40
00
00
7C
7E
6E
3E
FE
C6
C6
FE
7E
ENDCHAR
STARTCHAR 00E3
ENCODING 227
SWIDTH 432 0
DWIDTH 9 0
BBX 7 15 1 0
BITMAP
76
7E
DC
00
00
00
7C
7E
6E
3E
FE
C6
C6
FE
7E
ENDCHAR
STARTCHAR 00E4
ENCODING 228
SWIDTH 432 0
DWIDTH 9 0
BBX 7 15 1 0
BITMAP
66
66
00
00
00
00
7C
7E
6E
3E
FE
C6
C6
FE
7E
ENDCHAR
STARTCHAR 00E5
ENCODING 229
SWIDTH 432 0
DWIDTH 9 0
BBX 7 15 1 0
BITMAP
18
24
24
38
00
00
7C
7E
6E
3E
FE
E6
C6
FE
7E
ENDCHAR
STARTCHAR 00E6
ENCODING 230
SWIDTH 720 0
DWIDTH 15 0
BBX 13 9 1 0
BITMAP
7DE0
7FF0
6FB8
3FF8
FFF8
C600
EFB0
FFF0
79E0
ENDCHAR
STARTCHAR 00E7
ENCODING 231
SWIDTH 480 0
DWIDTH 10 0
BBX 7 14 1 -5
BITMAP
3C
7E
F6
E0
C0
E0
F6
7E
3C
10
1C
06
06
1C
ENDCHAR
STARTCHAR 00E8
ENCODING 232
SWIDTH 480 0
DWIDTH 10 0
BBX 8 15 1 0
BITMAP
30
78
1C
00
00
00
3C
7E
E7
FF
FF
C0
F6
7E
3C
ENDCHAR
STARTCHAR 00E9
ENCODING 233
SWIDTH 480 0
DWIDTH 10 0
BBX 8 15 1 0
BITMAP
0C
3C
70
00
00
00
3C
7E
E7
FF
FF
C0
F6
7E
3C
ENDCHAR
STARTCHAR 00EA
ENCODING 234
SWIDTH 480 0
DWIDTH 10 0
BBX 8 15 1 0
BITMAP
18
3C
66
00
00
00
3C
7E
E7
FF
FF
C0
F6
7E
3C
ENDCHAR
STARTCHAR 00EB
ENCODING 235
SWIDTH 480 0
DWIDTH 10 0
BBX 8 15 1 0
BITMAP
66
66
00
00
00
00
3C
7E
E7
FF
FF
C0
F6
7E
3C
ENDCHAR
STARTCHAR 00EC
ENCODING 236
SWIDTH 240 0
DWIDTH 5 0
BBX 5 15 0 0
BITMAP
C0
F0
38
00
00
00
60
60
60
60
60
60
60
60
60
ENDCHAR
STARTCHAR 00ED
ENCODING 237
SWIDTH 240 0
DWIDTH 5 0
BBX 5 15 0 0
BITMAP
10
78
E0
00
00
00
60
60
60
60
60
60
60
60
60
ENDCHAR
STARTCHAR 00EE
ENCODING 238
SWIDTH 240 0
DWIDTH 5 0
BBX 6 15 -1 0
BITMAP
30
78
CC
00
00
00
30
30
30
30
30
30
30
30
30
ENDCHAR
STARTCHAR 00EF
ENCODING 239
SWIDTH 240 0
DWIDTH 5 0
BBX 7 15 -1 0
BITMAP
C6
C6
00
00
00
00
30
30
30
30
30
30
30
30
30
ENDCHAR
STARTCHAR 00F0
ENCODING 240
SWIDTH 528 0
DWIDTH 11 0
BBX 9 16 1 0
BITMAP
2000
3B00
3C00
1E00
2700
0300
3F80
7F80
F780
E180
C180
C180
E380
7700
7F00
1E00
ENDCHAR
STARTCHAR 00F1
ENCODING 241
SWIDTH 480 0
DWIDTH 10 0
BBX 8 15 1 0
BITMAP
3B
3F
6E
00
00
00
9E
FF
F7
C3
C3
C3
C3
C3
C3
ENDCHAR
STARTCHAR 00F2
ENCODING 242
SWIDTH 480 0
DWIDTH 10 0
BBX 8 15 1 0
BITMAP
30
38
1C
00
00
00
3C
7E
F7
C3
C3
C3
F7
7E
3C
ENDCHAR
STARTCHAR 00F3
ENCODING 243
SWIDTH 480 0
DWIDTH 10 0
BBX 8 15 1 0
BITMAP
0C
1C
70
00
00
00
3C
7E
F7
C3
C3
C3
F7
7E
3C
ENDCHAR
STARTCHAR 00F4
ENCODING 244
SWIDTH 480 0
DWIDTH 10 0
BBX 8 15 1 0
BITMAP
18
3C
76
00
00
00
3C
7E
F7
C3
C3
C3
F7
7E
3C
ENDCHAR
STARTCHAR 00F5
ENCODING 245
SWIDTH 480 0
DWIDTH 10 0
BBX 8 15 1 0
BITMAP
3E
7E
7C
00
00
00
3C
7E
F7
C3
C3
C3
F7
7E
3C
ENDCHAR
STARTCHAR 00F6
ENCODING 246
SWIDTH 480 0
DWIDTH 10 0
BBX 8 15 1 0
BITMAP
66
66
00
00
00
00
3C
7E
F7
C3
C3
C3
F7
7E
3C
ENDCHAR
STARTCHAR 00F7
ENCODING 247
SWIDTH 528 0
DWIDTH 11 0
BBX 9 11 1 2
BITMAP
1800
1800
1800
0000
FF80
FF80
0000
0000
1800
1800
1800
ENDCHAR
STARTCHAR 00F8
ENCODING 248
SWIDTH 480 0
DWIDTH 10 0
BBX 8 9 1 0
BITMAP
3D
7F
F7
EF
DB
D3
F7
7E
BC
ENDCHAR
STARTCHAR 00F9
ENCODING 249
SWIDTH 480 0
DWIDTH 10 0
BBX 8 15 1 0
BITMAP
30
3C
0E
00
00
00
C3
C3
C3
C3
C3
C3
E7
7F
3F
ENDCHAR
STARTCHAR 00FA
ENCODING 250
SWIDTH 480 0
DWIDTH 10 0
BBX 8 15 1 0
BITMAP
04
1E
38
00
00
00
C3
C3
C3
C3
C3
C3
E7
7F
3F
ENDCHAR
STARTCHAR 00FB
ENCODING 251
SWIDTH 480 0
DWIDTH 10 0
BBX 8 15 1 0
BITMAP
18
3C
66
00
00
00
C3
C3
C3
C3
C3
C3
E7
7F
3F
ENDCHAR
STARTCHAR 00FC
ENCODING 252
SWIDTH 480 0
DWIDTH 10 0
BBX 8 15 1 0
BITMAP
66
66
00
00
00
00
C3
C3
C3
C3
C3
C3
E7
7F
3B
ENDCHAR
STARTCHAR 00FD
ENCODING 253
SWIDTH 480 0
DWIDTH 10 0
BBX 10 22 0 -7
BITMAP
0600
0E00
1800
0000
0000
0000
E1C0
6380
7380
7300
3700
3E00
1E00
1E00
0C00
1C00
1800
3800
3000
7000
7000
6000
ENDCHAR
STARTCHAR 00FE
ENCODING 254
SWIDTH 480 0
DWIDTH 10 0
BBX 8 22 1 -7
BITMAP
C0
C0
C0
C0
C0
C0
DC
FE
E7
C3
C3
C3
E7
FE
FC
C0
C0
C0
C0
C0
C0
C0
ENDCHAR
STARTCHAR 00FF
ENCODING 255
SWIDTH 432 0
DWIDTH 9 0
BBX 9 22 0 -7
BITMAP
6300
6300
0000
0000
0000
0000
E380
E380
6300
7700
7700
3E00
3E00
1C00
1C00
1800
3800
3800
7000
7000
6000
E000
ENDCHAR
STARTCHAR 0100
ENCODING 256
SWIDTH 672 0
DWIDTH 14 0
BBX 14 19 0 0
BITMAP
0FC0
0FC0
0000
0000
0300
0300
0380
0780
0780
0FC0
0CC0
1CE0
1860
3870
3FF0
7FF8
7038
6018
E01C
ENDCHAR
STARTCHAR 0101
ENCODING 257
SWIDTH 432 0
DWIDTH 9 0
BBX 7 14 1 0
BITMAP
7E
7E
00
00
00
7C
7E
6E
3E
FE
C6
C6
FE
7E
ENDCHAR
STARTCHAR 0102
ENCODING 258
SWIDTH 672 0
DWIDTH 14 0
BBX 14 20 0 0
BITMAP
0CC0
0F80
0780
0000
0000
0300
0300
0700
0780
0780
0FC0
0CC0
1CE0
1860
3870
3FF0
7FF0
7038
E018
E01C
ENDCHAR
STARTCHAR 0103
ENCODING 259
SWIDTH 432 0
DWIDTH 9 0
BBX 7 15 1 0
BITMAP
46
64
7C
38
00
00
7C
7E
6E
3E
FE
C6
C6
FE
7E
ENDCHAR
STARTCHAR 0104
ENCODING 260
SWIDTH 672 0
DWIDTH 14 0
BBX 15 20 0 -5
BITMAP
0100
0300
0380
0780
07C0
0FC0
0EE0
0CE0
1C70
1870
3FF8
3FF8
701C
701C
E00C
0010
0030
0030
0030
001E
ENDCHAR
STARTCHAR 0105
ENCODING 261
SWIDTH 432 0
DWIDTH 9 0
BBX 9 14 1 -5
BITMAP
7C00
7E00
6E00
3E00
FE00
C600
C600
FE00
7A00
0400
0C00
0C00
0C00
0780
ENDCHAR
STARTCHAR 0106
ENCODING 262
SWIDTH 672 0
DWIDTH 14 0
BBX 12 20 1 1
BITMAP
01C0
03C0
0600
0000
0000
07C0
1FF0
3EF0
7800
7000
E000
E000
E000
E000
E000
7000
7800
3EF0
1FF0
07C0
ENDCHAR
STARTCHAR 0107
ENCODING 263
SWIDTH 432 0
DWIDTH 9 0
BBX 7 15 1 0
BITMAP
0C
1C
38
00
00
00
3C
7E
F6
E0
C0
C0
F6
7E
3C
ENDCHAR
STARTCHAR 0108
ENCODING 264
SWIDTH 672 0
DWIDTH 14 0
BBX 12 20 1 0
BITMAP
0100
0380
06C0
0440
0000
07C0
1FF0
3EF0
7800
7000
E000
E000
E000
E000
E000
7000
7800
3EF0
1FF0
07C0
ENDCHAR
STARTCHAR 0109
ENCODING 265
SWIDTH 432 0
DWIDTH 9 0
BBX 7 15 1 0
BITMAP
18
3C
76
02
00
00
3C
7E
F6
E0
C0
C0
F6
7E
3C
ENDCHAR
STARTCHAR 010A
ENCODING 266
SWIDTH 672 0
DWIDTH 14 0
BBX 12 20 1 0
BITMAP
0380
0380
0380
0000
0000
07C0
1FF0
3EF0
7800
7000
E000
E000
E000
E000
E000
7000
7800
3EF0
1FF0
07C0
ENDCHAR
STARTCHAR 010B
ENCODING 267
SWIDTH 432 0
DWIDTH 9 0
BBX 7 15 1 0
BITMAP
1C
1C
1C
00
00
00
3C
7E
F6
E0
C0
C0
F6
7E
3C
ENDCHAR
STARTCHAR 010C
ENCODING 268
SWIDTH 672 0
DWIDTH 14 0
BBX 12 20 1 0
BITMAP
0440
0EE0
0380
0100
0000
07C0
1FF0
3EF0
7800
7000
E000
E000
E000
E000
E000
7000
7800
3EF0
1FF0
07C0
ENDCHAR
STARTCHAR 010D
ENCODING 269
SWIDTH 432 0
DWIDTH 9 0
BBX 7 15 1 0
BITMAP
66
3E
1C
00
00
00
3C
7E
F6
E0
C0
C0
F6
7E
3C
ENDCHAR
STARTCHAR 010E
ENCODING 270
SWIDTH 720 0
DWIDTH 15 0
BBX 12 20 2 0
BITMAP
3100
3F00
0E00
0400
0000
FF00
FF80
C3C0
C0E0
C070
C030
C030
C030
C030
C030
C070
C0E0
C3C0
FF80
FF00
ENDCHAR
STARTCHAR 010F
ENCODING 271
SWIDTH 576 0
DWIDTH 12 0
BBX 14 15 1 0
BITMAP
0318
031C
0304
0304
0308
0308
3F00
7F00
F700
E300
C300
C300
F700
7F00
3D00
ENDCHAR
STARTCHAR 0110
ENCODING 272
SWIDTH 720 0
DWIDTH 15 0
BBX 13 15 1 0
BITMAP
7F80
7FC0
61E0
6070
6038
6018
6018
FE18
6018
6018
6038
6070
61E0
7FC0
7F80
ENDCHAR
STARTCHAR 0111
ENCODING 273
SWIDTH 528 0
DWIDTH 11 0
BBX 9 15 1 0
BITMAP
0300
0300
1F80
0300
0300
0300
3F00
7F00
F700
C300
C300
C300
F700
7F00
3D00
ENDCHAR
STARTCHAR 0112
ENCODING 274
SWIDTH 624 0
DWIDTH 13 0
BBX 10 19 2 0
BITMAP
3F00
3F00
0000
0000
FFC0
FFC0
C000
C000
C000
C000
FF80
FF80
C000
C000
C000
C000
C000
FFC0
FFC0
ENDCHAR
STARTCHAR 0113
ENCODING 275
SWIDTH 480 0
DWIDTH 10 0
BBX 8 14 1 0
BITMAP
7E
7E
00
00
00
3C
7E
E7
FF
FF
C0
F6
7E
3C
ENDCHAR
STARTCHAR 0114
ENCODING 276
SWIDTH 624 0
DWIDTH 13 0
BBX 10 20 2 0
BITMAP
2300
3E00
1C00
0000
0000
FFC0
FFC0
C000
C000
C000
C000
FF80
FF80
C000
C000
C000
C000
C000
FFC0
FFC0
ENDCHAR
STARTCHAR 0115
ENCODING 277
SWIDTH 480 0
DWIDTH 10 0
BBX 8 15 1 0
BITMAP
66
7C
38
00
00
00
3C
7E
FF
FF
FF
C0
F6
7E
3C
ENDCHAR
STARTCHAR 0116
ENCODING 278
SWIDTH 624 0
DWIDTH 13 0
BBX 10 20 2 0
BITMAP
1C00
1C00
1C00
0000
0000
FFC0
FFC0
C000
C000
C000
C000
FF80
FF80
C000
C000
C000
C000
C000
FFC0
FFC0
ENDCHAR
STARTCHAR 0117
ENCODING 279
SWIDTH 480 0
DWIDTH 10 0
BBX 8 15 1 0
BITMAP
1C
1C
1C
00
00
00
3C
7E
F7
FF
FF
C0
F6
7E
3C
ENDCHAR
STARTCHAR 0118
ENCODING 280
SWIDTH 624 0
DWIDTH 13 0
BBX 11 20 2 -5
BITMAP
FFC0
FFC0
C000
C000
C000
C000
FF80
FF80
C000
C000
C000
C000
C000
FFC0
FFC0
0180
0300
0300
0300
01E0
ENDCHAR
STARTCHAR 0119
ENCODING 281
SWIDTH 480 0
DWIDTH 10 0
BBX 8 14 1 -5
BITMAP
3C
7E
7F
C7
FF
FF
C0
66
7E
1C
10
30
30
1E
ENDCHAR
STARTCHAR 011A
ENCODING 282
SWIDTH 624 0
DWIDTH 13 0
BBX 10 20 2 0
BITMAP
2200
3E00
1C00
0800
0000
FFC0
FFC0
C000
C000
C000
C000
FF80
FF80
C000
C000
C000
C000
C000
FFC0
FFC0
ENDCHAR
STARTCHAR 011B
ENCODING 283
SWIDTH 480 0
DWIDTH 10 0
BBX 8 15 1 0
BITMAP
66
7E
1C
00
00
00
3C
7E
E7
FF
FF
C0
F6
7E
3C
ENDCHAR
STARTCHAR 011C
ENCODING 284
SWIDTH 672 0
DWIDTH 14 0
BBX 12 20 1 0
BITMAP
0100
0380
0FC0
0440
0000
07C0
1FF0
3EF0
7800
7000
E000
E000
E0F0
E0F0
E030
7030
7830
3EF0
1FF0
0FC0
ENDCHAR
STARTCHAR 011D
ENCODING 285
SWIDTH 528 0
DWIDTH 11 0
BBX 9 22 1 -7
BITMAP
0C00
1E00
3700
2000
0000
0000
1F80
3F80
7700
6300
6300
7700
7F00
FE00
C000
FF00
7F80
7380
6180
7780
7F00
3E00
ENDCHAR
STARTCHAR 011E
ENCODING 286
SWIDTH 672 0
DWIDTH 14 0
BBX 12 20 1 0
BITMAP
0C40
07C0
0380
0000
0000
07C0
1FF0
3EF0
7800
7000
E000
E000
E0F0
E0F0
E030
7030
7830
3EF0
1FF0
0FC0
ENDCHAR
STARTCHAR 011F
ENCODING 287
SWIDTH 528 0
DWIDTH 11 0
BBX 9 22 1 -7
BITMAP
3100
3300
1E00
0C00
0000
0000
1F80
3F80
7700
6300
7700
7F00
FE00
C000
C000
FF00
7F80
7380
6180
7380
7F00
3E00
ENDCHAR
STARTCHAR 0120
ENCODING 288
SWIDTH 672 0
DWIDTH 14 0
BBX 12 20 1 0
BITMAP
0380
0380
0380
0000
0000
07C0
1FF0
3EF0
7800
7000
E000
E000
E0F0
E0F0
E030
7030
7830
3EF0
1FF0
0FC0
ENDCHAR
STARTCHAR 0121
ENCODING 289
SWIDTH 528 0
DWIDTH 11 0
BBX 9 22 1 -7
BITMAP
0C00
1C00
0C00
0000
0000
0000
1F80
3F80
7700
6300
6300
7700
7F00
FE00
C000
FF00
7F80
7380
6180
7780
7F00
3E00
ENDCHAR
STARTCHAR 0122
ENCODING 290
SWIDTH 672 0
DWIDTH 14 0
BBX 12 23 1 -8
BITMAP
07C0
1FF0
3EF0
7800
7000
E000
E000
E0F0
E0F0
E030
7030
7830
3EF0
1FF0
0FC0
0000
0000
0380
0380
0080
0080
0100
0100
ENDCHAR
STARTCHAR 0123
ENCODING 291
SWIDTH 528 0
DWIDTH 11 0
BBX 9 24 1 -6
BITMAP
0800
1000
1000
1C00
1C00
0000
0000
0000
1F80
3F80
7700
6300
6300
7700
7F00
FE00
C000
FF00
7F80
7380
6180
7780
7F00
3E00
ENDCHAR
STARTCHAR 0124
ENCODING 292
SWIDTH 768 0
DWIDTH 16 0
BBX 12 20 2 0
BITMAP
0600
0F00
1D80
0080
0000
C030
C030
C030
C030
C030
C030
FFF0
FFF0
C030
C030
C030
C030
C030
C030
C030
ENDCHAR
STARTCHAR 0125
ENCODING 293
SWIDTH 480 0
DWIDTH 10 0
BBX 10 19 -1 1
BITMAP
3000
FC00
CC00
0000
3000
3000
3000
3000
3000
3000
3700
3F80
3DC0
30C0
30C0
30C0
30C0
30C0
30C0
ENDCHAR
STARTCHAR 0126
ENCODING 294
SWIDTH 768 0
DWIDTH 16 0
BBX 14 15 1 0
BITMAP
6018
6018
FFFC
6018
6018
6018
7FF8
7FF8
6018
6018
6018
6018
6018
6018
6018
ENDCHAR
STARTCHAR 0127
ENCODING 295
SWIDTH 480 0
DWIDTH 10 0
BBX 9 15 0 0
BITMAP
6000
6000
FC00
6000
6000
6000
6E00
7F00
7B80
6180
6180
6180
6180
6180
6180
ENDCHAR
STARTCHAR 0128
ENCODING 296
SWIDTH 288 0
DWIDTH 6 0
BBX 6 20 0 0
BITMAP
74
FC
9C
00
00
30
30
30
30
30
30
30
30
30
30
30
30
30
30
30
ENDCHAR
STARTCHAR 0129
ENCODING 297
SWIDTH 240 0
DWIDTH 5 0
BBX 7 15 -1 0
BITMAP
76
7E
DC
00
00
00
30
30
30
30
30
30
30
30
30
ENDCHAR
STARTCHAR 012A
ENCODING 298
SWIDTH 384 0
DWIDTH 8 0
BBX 6 19 1 0
BITMAP
FC
FC
00
00
30
30
30
30
30
30
30
30
30
30
30
30
30
30
30
ENDCHAR
STARTCHAR 012B
ENCODING 299
SWIDTH 288 0
DWIDTH 6 0
BBX 6 14 0 0
BITMAP
FC
FC
00
00
00
30
30
30
30
30
30
30
30
30
ENDCHAR
STARTCHAR 012C
ENCODING 300
SWIDTH 288 0
DWIDTH 6 0
BBX 6 20 0 0
BITMAP
CC
7C
38
00
00
30
30
30
30
30
30
30
30
30
30
30
30
30
30
30
ENDCHAR
STARTCHAR 012D
ENCODING 301
SWIDTH 240 0
DWIDTH 5 0
BBX 5 15 0 0
BITMAP
88
D8
F8
70
00
00
60
60
60
60
60
60
60
60
60
ENDCHAR
STARTCHAR 012E
ENCODING 302
SWIDTH 288 0
DWIDTH 6 0
BBX 5 20 1 -5
BITMAP
60
60
60
60
60
60
60
60
60
60
60
60
60
60
60
40
C0
C0
C0
78
ENDCHAR
STARTCHAR 012F
ENCODING 303
SWIDTH 240 0
DWIDTH 5 0
BBX 5 20 1 -5
BITMAP
60
60
60
00
00
00
60
60
60
60
60
60
60
60
60
40
C0
C0
C0
78
ENDCHAR
STARTCHAR 0130
ENCODING 304
SWIDTH 288 0
DWIDTH 6 0
BBX 2 20 2 0
BITMAP
C0
C0
C0
00
00
C0
C0
C0
C0
C0
C0
C0
C0
C0
C0
C0
C0
C0
C0
C0
ENDCHAR
STARTCHAR 0131
ENCODING 305
SWIDTH 240 0
DWIDTH 5 0
BBX 2 9 1 0
BITMAP
C0
C0
C0
C0
C0
C0
C0
C0
C0
ENDCHAR
STARTCHAR 0132
ENCODING 306
SWIDTH 768 0
DWIDTH 16 0
BBX 12 15 2 0
BITMAP
C030
C030
C030
C030
C030
C030
C030
C030
C030
C030
C030
C030
C770
C7E0
C3C0
ENDCHAR
STARTCHAR 0133
ENCODING 307
SWIDTH 480 0
DWIDTH 10 0
BBX 8 22 1 -7
BITMAP
C3
C3
C3
00
00
00
C3
C3
C3
C3
C3
C3
C3
C3
C3
03
03
03
03
37
3E
3C
ENDCHAR
STARTCHAR 0134
ENCODING 308
SWIDTH 384 0
DWIDTH 8 0
BBX 9 20 -1 0
BITMAP
0600
0F00
1D80
0080
0000
0600
0600
0600
0600
0600
0600
0600
0600
0600
0600
0600
0600
6E00
FC00
7800
ENDCHAR
STARTCHAR 0135
ENCODING 309
SWIDTH 240 0
DWIDTH 5 0
BBX 8 22 -3 -7
BITMAP
0C
1E
33
00
00
00
0C
0C
0C
0C
0C
0C
0C
0C
0C
0C
0C
0C
0C
5C
FC
78
ENDCHAR
STARTCHAR 0136
ENCODING 310
SWIDTH 672 0
DWIDTH 14 0
BBX 11 23 2 -8
BITMAP
C0E0
C1C0
C380
C780
CF00
DE00
FC00
FC00
DE00
CE00
CF00
C780
C3C0
C1E0
C0E0
0000
0000
0C00
0E00
0200
0200
0400
0400
ENDCHAR
STARTCHAR 0137
ENCODING 311
SWIDTH 480 0
DWIDTH 10 0
BBX 9 23 1 -8
BITMAP
C000
C000
C000
C000
C000
C000
C700
CF00
DE00
FC00
FC00
DC00
CE00
C700
C380
0000
0000
1800
3C00
0400
0400
0800
0800
ENDCHAR
STARTCHAR 0138
ENCODING 312
SWIDTH 480 0
DWIDTH 10 0
BBX 9 9 1 0
BITMAP
C700
CE00
CC00
DC00
F800
FC00
DE00
CF00
C780
ENDCHAR
STARTCHAR 0139
ENCODING 313
SWIDTH 528 0
DWIDTH 11 0
BBX 10 20 1 1
BITMAP
3000
F000
C000
0000
0000
6000
6000
6000
6000
6000
6000
6000
6000
6000
6000
6000
6000
7F80
7FC0
7FC0
ENDCHAR
STARTCHAR 013A
ENCODING 314
SWIDTH 240 0
DWIDTH 5 0
BBX 5 20 0 0
BITMAP
10
38
F0
80
00
60
60
60
60
60
60
60
60
60
60
60
60
60
60
60
ENDCHAR
STARTCHAR 013B
ENCODING 315
SWIDTH 528 0
DWIDTH 11 0
BBX 9 23 2 -8
BITMAP
E000
E000
E000
E000
E000
E000
E000
E000
E000
E000
E000
E000
FF00
FF80
FF80
0000
0000
1800
1C00
0400
0400
0800
0800
ENDCHAR
STARTCHAR 013C
ENCODING 316
SWIDTH 240 0
DWIDTH 5 0
BBX 3 23 1 -8
BITMAP
C0
C0
C0
C0
C0
C0
C0
C0
C0
C0
C0
C0
C0
C0
C0
00
00
C0
E0
20
20
40
40
ENDCHAR
STARTCHAR 013D
ENCODING 317
SWIDTH 528 0
DWIDTH 11 0
BBX 9 15 2 0
BITMAP
C600
C700
C100
C100
C200
C200
C000
C000
C000
C000
C000
C000
FF00
FF80
FF80
ENDCHAR
STARTCHAR 013E
ENCODING 318
SWIDTH 288 0
DWIDTH 6 0
BBX 8 15 1 0
BITMAP
C6
C7
C1
C1
C2
C2
C0
C0
C0
C0
C0
C0
C0
C0
C0
ENDCHAR
STARTCHAR 013F
ENCODING 319
SWIDTH 624 0
DWIDTH 13 0
BBX 10 15 2 0
BITMAP
C000
C000
C000
C000
C000
C000
C1C0
C1C0
C1C0
C000
C000
C000
FF80
FF80
FF80
ENDCHAR
STARTCHAR 0140
ENCODING 320
SWIDTH 432 0
DWIDTH 9 0
BBX 7 15 1 0
BITMAP
C0
C0
C0
C0
C0
C0
CE
CE
CE
C0
C0
C0
C0
C0
C0
ENDCHAR
STARTCHAR 0141
ENCODING 321
SWIDTH 528 0
DWIDTH 11 0
BBX 10 15 1 0
BITMAP
6000
6000
6000
6000
6400
7800
7000
E000
E000
6000
6000
6000
7F80
7FC0
7FC0
ENDCHAR
STARTCHAR 0142
ENCODING 322
SWIDTH 288 0
DWIDTH 6 0
BBX 5 15 1 0
BITMAP
60
60
60
60
60
78
70
E0
E0
60
60
60
60
60
60
ENDCHAR
STARTCHAR 0143
ENCODING 323
SWIDTH 768 0
DWIDTH 16 0
BBX 12 20 2 1
BITMAP
0300
0F00
0C00
0000
0000
8030
C030
E030
F030
F830
FC30
DE30
CF30
C7B0
C3F0
C1F0
C0F0
C070
C030
C010
ENDCHAR
STARTCHAR 0144
ENCODING 324
SWIDTH 480 0
DWIDTH 10 0
BBX 8 15 1 0
BITMAP
06
1E
38
00
00
00
9E
FF
F7
C3
C3
C3
C3
C3
C3
ENDCHAR
STARTCHAR 0145
ENCODING 325
SWIDTH 768 0
DWIDTH 16 0
BBX 12 23 2 -8
BITMAP
8030
C030
E030
F030
F830
FC30
DE30
CF30
C7B0
C3F0
C1F0
C0F0
C070
C030
C010
0000
0000
0700
0700
0100
0100
0200
0200
ENDCHAR
STARTCHAR 0146
ENCODING 326
SWIDTH 480 0
DWIDTH 10 0
BBX 8 17 1 -8
BITMAP
9E
FF
F7
C3
C3
C3
C3
C3
C3
00
00
18
1C
04
04
08
08
ENDCHAR
STARTCHAR 0147
ENCODING 327
SWIDTH 768 0
DWIDTH 16 0
BBX 12 20 2 0
BITMAP
1080
1F80
0F00
0600
0000
8030
C030
E030
F030
F830
FC30
DE30
CF30
C7B0
C3F0
C1F0
C0F0
C070
C030
C010
ENDCHAR
STARTCHAR 0148
ENCODING 328
SWIDTH 480 0
DWIDTH 10 0
BBX 8 15 1 0
BITMAP
66
3E
18
00
00
00
9E
FF
F7
C3
C3
C3
C3
C3
C3
ENDCHAR
STARTCHAR 0149
ENCODING 329
SWIDTH 528 0
DWIDTH 11 0
BBX 13 15 -3 0
BITMAP
E000
E000
2000
2000
4000
4000
05E0
07F0
07B8
0618
0618
0618
0618
0618
0618
ENDCHAR
STARTCHAR 014A
ENCODING 330
SWIDTH 768 0
DWIDTH 16 0
BBX 12 22 2 -7
BITMAP
8030
C030
E030
F030
F830
FC30
DE30
CF30
C7B0
C3F0
C1F0
C0F0
C070
C030
C030
0030
0030
0030
0030
0370
03E0
01C0
ENDCHAR
STARTCHAR 014B
ENCODING 331
SWIDTH 480 0
DWIDTH 10 0
BBX 8 16 1 -7
BITMAP
DE
FE
F7
C3
C3
C3
C3
C3
C3
03
03
03
03
17
3F
1C
ENDCHAR
STARTCHAR 014C
ENCODING 332
SWIDTH 816 0
DWIDTH 17 0
BBX 15 20 1 0
BITMAP
0FC0
0FC0
0000
0000
0000
07C0
1FF0
3EF8
701C
600C
E00E
C006
C006
C006
E00E
600C
701C
3EF8
1FF0
07C0
ENDCHAR
STARTCHAR 014D
ENCODING 333
SWIDTH 480 0
DWIDTH 10 0
BBX 8 14 1 0
BITMAP
7E
7E
00
00
00
3C
7E
F7
C3
C3
C3
F7
7E
3C
ENDCHAR
STARTCHAR 014E
ENCODING 334
SWIDTH 816 0
DWIDTH 17 0
BBX 15 20 1 0
BITMAP
0C40
07C0
0380
0000
0000
07C0
1FF0
3EF8
701C
600C
E00E
C006
C006
C006
E00E
600C
701C
3EF8
1FF0
07C0
ENDCHAR
STARTCHAR 014F
ENCODING 335
SWIDTH 480 0
DWIDTH 10 0
BBX 8 15 1 0
BITMAP
66
7C
3C
00
00
00
3C
7E
F7
C3
C3
C3
F7
7E
3C
ENDCHAR
STARTCHAR 0150
ENCODING 336
SWIDTH 816 0
DWIDTH 17 0
BBX 15 21 1 0
BITMAP
0370
0360
0660
0640
0000
0000
07C0
1FF0
3EF8
701C
600C
E00E
C006
C006
C006
E00E
600C
701C
3EF8
1FF0
07C0
ENDCHAR
STARTCHAR 0151
ENCODING 337
SWIDTH 480 0
DWIDTH 10 0
BBX 8 15 1 0
BITMAP
3B
37
36
66
00
00
3C
7E
F7
C3
C3
C3
F7
7E
3C
ENDCHAR
STARTCHAR 0152
ENCODING 338
SWIDTH 1008 0
DWIDTH 21 0
BBX 19 15 1 0
BITMAP
07FFE0
1FFFE0
3EE000
706000
606000
E06000
C07FC0
C07FC0
C06000
E06000
606000
706000
3EE000
1FFFE0
07FFE0
ENDCHAR
STARTCHAR 0153
ENCODING 339
SWIDTH 768 0
DWIDTH 16 0
BBX 14 9 1 0
BITMAP
3CF0
7FF8
F7DC
E3FC
C3FC
E380
F7D8
7FFC
3CF0
ENDCHAR
STARTCHAR 0154
ENCODING 340
SWIDTH 672 0
DWIDTH 14 0
BBX 11 20 2 1
BITMAP
0600
1E00
1800
0000
0000
FF80
FFC0
C1E0
C060
C060
C0E0
FFC0
FF80
C700
C380
C380
C1C0
C1C0
C0E0
C0E0
ENDCHAR
STARTCHAR 0155
ENCODING 341
SWIDTH 336 0
DWIDTH 7 0
BBX 6 15 1 0
BITMAP
18
78
E0
00
00
00
BC
F8
E8
C0
C0
C0
C0
C0
C0
ENDCHAR
STARTCHAR 0156
ENCODING 342
SWIDTH 672 0
DWIDTH 14 0
BBX 11 23 2 -8
BITMAP
FF80
FFC0
C1E0
C060
C060
C0E0
FFC0
FF80
C700
C380
C380
C1C0
C1C0
C0E0
C0E0
0000
0000
0C00
0E00
0200
0200
0400
0400
ENDCHAR
STARTCHAR 0157
ENCODING 343
SWIDTH 336 0
DWIDTH 7 0
BBX 6 17 1 -8
BITMAP
DC
F8
E8
C0
C0
C0
C0
C0
C0
00
00
C0
E0
20
20
40
40
ENDCHAR
STARTCHAR 0158
ENCODING 344
SWIDTH 672 0
DWIDTH 14 0
BBX 11 20 2 0
BITMAP
2300
3F00
1C00
0800
0000
FF80
FFC0
C1E0
C060
C060
C0E0
FFC0
FF80
C700
C380
C380
C1C0
C1C0
C0E0
C0E0
ENDCHAR
STARTCHAR 0159
ENCODING 345
SWIDTH 336 0
DWIDTH 7 0
BBX 7 15 0 0
BITMAP
CC
7C
30
00
00
00
5E
7C
74
60
60
60
60
60
60
ENDCHAR
STARTCHAR 015A
ENCODING 346
SWIDTH 576 0
DWIDTH 12 0
BBX 10 20 1 1
BITMAP
0600
1E00
3800
0000
0000
3E00
7F00
F700
C100
C000
F000
7C00
3F00
0F80
03C0
01C0
41C0
77C0
7F80
1F00
ENDCHAR
STARTCHAR 015B
ENCODING 347
SWIDTH 336 0
DWIDTH 7 0
BBX 6 15 0 0
BITMAP
0C
1C
70
00
00
00
78
7C
68
60
38
0C
4C
FC
78
ENDCHAR
STARTCHAR 015C
ENCODING 348
SWIDTH 576 0
DWIDTH 12 0
BBX 10 20 1 0
BITMAP
0800
1C00
3F00
2200
0000
3E00
7F00
F700
C100
C000
F000
7C00
3F00
0F80
03C0
01C0
41C0
77C0
7F80
1F00
ENDCHAR
STARTCHAR 015D
ENCODING 349
SWIDTH 336 0
DWIDTH 7 0
BBX 6 15 0 0
BITMAP
30
78
EC
04
00
00
78
7C
68
60
38
0C
4C
FC
78
ENDCHAR
STARTCHAR 015E
ENCODING 350
SWIDTH 576 0
DWIDTH 12 0
BBX 10 20 1 -5
BITMAP
3E00
7F00
F700
C100
C000
F000
7C00
3F00
0F80
03C0
01C0
81C0
F7C0
FF80
3E00
1800
1C00
0600
0600
1C00
ENDCHAR
STARTCHAR 015F
ENCODING 351
SWIDTH 336 0
DWIDTH 7 0
BBX 5 14 1 -5
BITMAP
70
F8
D8
E0
70
18
58
F8
78
20
30
18
18
70
ENDCHAR
STARTCHAR 0160
ENCODING 352
SWIDTH 576 0
DWIDTH 12 0
BBX 10 20 1 0
BITMAP
2200
3700
1E00
0800
0000
3E00
7F00
F700
C100
C000
F000
7C00
3F00
0F80
03C0
01C0
41C0
77C0
7F80
1F00
ENDCHAR
STARTCHAR 0161
ENCODING 353
SWIDTH 336 0
DWIDTH 7 0
BBX 6 15 0 0
BITMAP
44
7C
38
10
00
00
78
7C
68
60
38
0C
4C
FC
78
ENDCHAR
STARTCHAR 0162
ENCODING 354
SWIDTH 576 0
DWIDTH 12 0
BBX 10 23 1 -8
BITMAP
FFC0
FFC0
0C00
0C00
0C00
0C00
0C00
0C00
0C00
0C00
0C00
0C00
0C00
0C00
0C00
0000
0000
0C00
0C00
0400
0400
0800
0800
ENDCHAR
STARTCHAR 0163
ENCODING 355
SWIDTH 384 0
DWIDTH 8 0
BBX 6 20 1 -8
BITMAP
60
60
60
FC
FC
60
60
60
60
78
7C
38
00
00
38
38
08
08
10
10
ENDCHAR
STARTCHAR 0164
ENCODING 356
SWIDTH 576 0
DWIDTH 12 0
BBX 10 20 1 0
BITMAP
2300
3F00
1C00
0800
0000
FFC0
FFC0
0C00
0C00
0C00
0C00
0C00
0C00
0C00
0C00
0C00
0C00
0C00
0C00
0C00
ENDCHAR
STARTCHAR 0165
ENCODING 357
SWIDTH 384 0
DWIDTH 8 0
BBX 10 15 1 0
BITMAP
01C0
01C0
0040
6040
6080
6080
FC00
FC00
6000
6000
6000
6000
7800
7C00
3800
ENDCHAR
STARTCHAR 0166
ENCODING 358
SWIDTH 576 0
DWIDTH 12 0
BBX 10 15 1 0
BITMAP
FFC0
FFC0
0C00
0C00
0C00
0C00
0C00
7F80
0C00
0C00
0C00
0C00
0C00
0C00
0C00
ENDCHAR
STARTCHAR 0167
ENCODING 359
SWIDTH 384 0
DWIDTH 8 0
BBX 6 12 1 0
BITMAP
60
60
60
FC
FC
60
60
FC
60
78
7C
38
ENDCHAR
STARTCHAR 0168
ENCODING 360
SWIDTH 720 0
DWIDTH 15 0
BBX 11 20 2 0
BITMAP
1D80
3F00
3700
0000
0000
C060
C060
C060
C060
C060
C060
C060
C060
C060
C060
C060
E0E0
7BC0
3F80
1F00
ENDCHAR
STARTCHAR 0169
ENCODING 361
SWIDTH 480 0
DWIDTH 10 0
BBX 8 15 1 0
BITMAP
32
7E
7E
00
00
00
C3
C3
C3
C3
C3
C3
E7
7F
3F
ENDCHAR
STARTCHAR 016A
ENCODING 362
SWIDTH 720 0
DWIDTH 15 0
BBX 11 20 2 0
BITMAP
1F80
1F80
0000
0000
0000
E060
E060
E060
E060
E060
E060
E060
E060
E060
E060
E060
F0E0
79C0
3F80
1F00
ENDCHAR
STARTCHAR 016B
ENCODING 363
SWIDTH 480 0
DWIDTH 10 0
BBX 8 14 1 0
BITMAP
7E
7E
00
00
00
C3
C3
C3
C3
C3
C3
E7
7F
3B
ENDCHAR
STARTCHAR 016C
ENCODING 364
SWIDTH 720 0
DWIDTH 15 0
BBX 11 20 2 0
BITMAP
1100
1F00
0E00
0000
0000
C060
C060
C060
C060
C060
C060
C060
C060
C060
C060
E060
F0E0
7FC0
3F80
1F00
ENDCHAR
STARTCHAR 016D
ENCODING 365
SWIDTH 480 0
DWIDTH 10 0
BBX 8 15 1 0
BITMAP
62
26
3E
1C
00
00
C3
C3
C3
C3
C3
C3
E7
7F
3F
ENDCHAR
STARTCHAR 016E
ENCODING 366
SWIDTH 720 0
DWIDTH 15 0
BBX 11 22 2 0
BITMAP
0600
0B00
0900
0900
0600
0000
0000
C060
C060
C060
C060
C060
C060
C060
C060
C060
C060
C060
E0E0
7BC0
3F80
1F00
ENDCHAR
STARTCHAR 016F
ENCODING 367
SWIDTH 480 0
DWIDTH 10 0
BBX 8 15 1 0
BITMAP
18
24
24
38
00
00
C3
C3
C3
C3
C3
C3
E7
7F
7B
ENDCHAR
STARTCHAR 0170
ENCODING 368
SWIDTH 720 0
DWIDTH 15 0
BBX 11 21 2 0
BITMAP
0DC0
0D80
1980
1900
0000
0000
C060
C060
C060
C060
C060
C060
C060
C060
C060
C060
C060
E0E0
7BC0
3F80
1F00
ENDCHAR
STARTCHAR 0171
ENCODING 369
SWIDTH 480 0
DWIDTH 10 0
BBX 9 15 1 0
BITMAP
1B80
3B00
3300
3600
0000
0000
C300
C300
C300
C300
C300
C300
E700
7F00
3F00
ENDCHAR
STARTCHAR 0172
ENCODING 370
SWIDTH 720 0
DWIDTH 15 0
BBX 11 20 2 -5
BITMAP
C060
C060
C060
C060
C060
C060
C060
C060
C060
C060
C060
E0E0
71E0
7FC0
1F80
0600
0C00
0C00
0C00
0780
ENDCHAR
STARTCHAR 0173
ENCODING 371
SWIDTH 480 0
DWIDTH 10 0
BBX 10 14 1 -5
BITMAP
C300
C300
C300
C300
C300
C300
E700
7F00
3D00
0200
0600
0600
0600
03C0
ENDCHAR
STARTCHAR 0174
ENCODING 372
SWIDTH 912 0
DWIDTH 19 0
BBX 17 20 1 0
BITMAP
008000
03C000
076000
002000
000000
C08380
E18380
E1C380
E1C300
63E700
736700
776600
367600
363E00
3E3E00
3C3C00
1C1C00
1C1C00
180C00
180800
ENDCHAR
STARTCHAR 0175
ENCODING 373
SWIDTH 624 0
DWIDTH 13 0
BBX 12 15 0 0
BITMAP
0700
0F80
1980
0000
0000
0000
E230
6730
6770
7FE0
3DE0
39E0
38E0
10C0
1040
ENDCHAR
STARTCHAR 0176
ENCODING 374
SWIDTH 576 0
DWIDTH 12 0
BBX 12 20 0 0
BITMAP
0600
0F00
1D80
0080
0000
E070
70E0
70E0
39C0
1D80
1F80
0F00
0600
0600
0600
0600
0600
0600
0600
0600
ENDCHAR
STARTCHAR 0177
ENCODING 375
SWIDTH 480 0
DWIDTH 10 0
BBX 10 22 0 -7
BITMAP
0C00
3E00
3300
0000
0000
0000
E1C0
6380
7380
7300
3700
3E00
1E00
1E00
0C00
1C00
1800
3800
3000
7000
7000
6000
ENDCHAR
STARTCHAR 0178
ENCODING 376
SWIDTH 528 0
DWIDTH 11 0
BBX 12 19 0 0
BITMAP
3980
3180
0000
0000
E070
70F0
30E0
39C0
1FC0
0F80
0F00
0700
0600
0600
0600
0600
0600
0600
0600
ENDCHAR
STARTCHAR 0179
ENCODING 377
SWIDTH 576 0
DWIDTH 12 0
BBX 10 20 1 1
BITMAP
0600
1E00
1800
0000
0000
FFC0
FFC0
0380
0380
0700
0600
0E00
0C00
1C00
3800
3800
7000
7000
FFC0
FFC0
ENDCHAR
STARTCHAR 017A
ENCODING 378
SWIDTH 384 0
DWIDTH 8 0
BBX 6 15 1 0
BITMAP
18
38
70
00
00
00
FC
FC
18
38
30
70
60
FC
FC
ENDCHAR
STARTCHAR 017B
ENCODING 379
SWIDTH 576 0
DWIDTH 12 0
BBX 10 20 1 0
BITMAP
0E00
0E00
0E00
0000
0000
FFC0
FFC0
0380
0380
0700
0700
0E00
0E00
1C00
1C00
3800
7800
7000
FFC0
FFC0
ENDCHAR
STARTCHAR 017C
ENCODING 380
SWIDTH 384 0
DWIDTH 8 0
BBX 7 15 1 0
BITMAP
38
38
38
00
00
00
FE
FC
1C
38
38
70
70
FC
FC
ENDCHAR
STARTCHAR 017D
ENCODING 381
SWIDTH 576 0
DWIDTH 12 0
BBX 10 20 1 0
BITMAP
3100
3F00
0E00
0400
0000
FFC0
FFC0
0380
0380
0700
0600
0E00
0C00
1C00
3800
3800
7000
7000
FFC0
FFC0
ENDCHAR
STARTCHAR 017E
ENCODING 382
SWIDTH 384 0
DWIDTH 8 0
BBX 6 15 1 0
BITMAP
CC
7C
30
00
00
00
FC
FC
18
38
30
70
60
FC
FC
ENDCHAR
STARTCHAR 0192
ENCODING 402
SWIDTH 432 0
DWIDTH 9 0
BBX 10 22 -1 -7
BITMAP
03C0
07C0
0E80
0C00
0C00
0C00
3F80
3F80
0C00
0C00
0C00
0C00
0C00
0C00
0C00
0C00
0C00
0C00
0C00
5C00
FC00
7000
ENDCHAR
STARTCHAR 01FA
ENCODING 506
SWIDTH 624 0
DWIDTH 13 0
BBX 13 23 0 0
BITMAP
0080
0380
0700
0400
0300
0580
0480
0480
0700
0300
0300
0780
0780
0FC0
0DC0
1CC0
18E0
3860
3FF0
7FF0
7038
6038
E018
ENDCHAR
STARTCHAR 01FB
ENCODING 507
SWIDTH 432 0
DWIDTH 9 0
BBX 7 18 1 0
BITMAP
08
3C
70
00
18
24
24
38
00
7C
7E
6E
3E
FE
E6
C6
FE
7E
ENDCHAR
STARTCHAR 01FC
ENCODING 508
SWIDTH 912 0
DWIDTH 19 0
BBX 19 20 -1 1
BITMAP
000300
000F00
000C00
000000
000000
007FE0
00FFE0
00E000
01E000
03E000
03E000
077FC0
067FC0
0E6000
1C6000
1FE000
3FE000
306000
707FE0
E07FE0
ENDCHAR
STARTCHAR 01FD
ENCODING 509
SWIDTH 720 0
DWIDTH 15 0
BBX 13 15 1 0
BITMAP
0180
0380
0600
0000
0000
0000
7DE0
7FF0
6FB8
3FF8
FFF8
C600
EFB0
FFF0
79E0
ENDCHAR
STARTCHAR 01FE
ENCODING 510
SWIDTH 816 0
DWIDTH 17 0
BBX 15 20 1 1
BITMAP
0180
0380
0600
0000
0000
07E2
1FFC
3EFC
701C
602E
E06E
C0C6
C186
C306
E60E
FC0C
781C
7EF8
7FF0
8FC0
ENDCHAR
STARTCHAR 01FF
ENCODING 511
SWIDTH 480 0
DWIDTH 10 0
BBX 8 15 1 0
BITMAP
0C
1C
70
00
00
00
3D
7F
F7
EF
DB
D3
F7
7E
BC
ENDCHAR
STARTCHAR 0218
ENCODING 536
SWIDTH 576 0
DWIDTH 12 0
BBX 10 23 1 -8
BITMAP
3E00
7F00
F700
C100
C000
F000
7C00
3F00
0F80
03C0
01C0
41C0
77C0
7F80
1F00
0000
0000
1C00
1C00
0400
0400
0800
0800
ENDCHAR
STARTCHAR 0219
ENCODING 537
SWIDTH 336 0
DWIDTH 7 0
BBX 6 17 0 -8
BITMAP
78
7C
68
60
38
0C
4C
FC
78
00
00
38
38
08
08
10
10
ENDCHAR
STARTCHAR 021A
ENCODING 538
SWIDTH 576 0
DWIDTH 12 0
BBX 10 23 1 -8
BITMAP
FFC0
FFC0
0C00
0C00
0C00
0C00
0C00
0C00
0C00
0C00
0C00
0C00
0C00
0C00
0C00
0000
0000
0E00
0E00
0200
0200
0400
0400
ENDCHAR
STARTCHAR 021B
ENCODING 539
SWIDTH 384 0
DWIDTH 8 0
BBX 6 20 1 -8
BITMAP
60
60
60
FC
FC
60
60
60
60
78
7C
38
00
00
38
38
08
08
10
10
ENDCHAR
STARTCHAR 0237
ENCODING 567
SWIDTH 240 0
DWIDTH 5 0
BBX 6 16 -3 -7
BITMAP
0C
0C
0C
0C
0C
0C
0C
0C
0C
0C
0C
0C
0C
5C
FC
78
ENDCHAR
STARTCHAR 02C6
ENCODING 710
SWIDTH 384 0
DWIDTH 8 0
BBX 6 4 1 11
BITMAP
30
78
DC
80
ENDCHAR
STARTCHAR 02C7
ENCODING 711
SWIDTH 384 0
DWIDTH 8 0
BBX 6 4 1 11
BITMAP
CC
FC
70
20
ENDCHAR
STARTCHAR 02C9
ENCODING 713
SWIDTH 384 0
DWIDTH 8 0
BBX 6 2 1 13
BITMAP
FC
FC
ENDCHAR
STARTCHAR 02D8
ENCODING 728
SWIDTH 336 0
DWIDTH 7 0
BBX 6 3 1 12
BITMAP
8C
F8
70
ENDCHAR
STARTCHAR 02D9
ENCODING 729
SWIDTH 240 0
DWIDTH 5 0
BBX 3 3 1 12
BITMAP
E0
E0
E0
ENDCHAR
STARTCHAR 02DA
ENCODING 730
SWIDTH 288 0
DWIDTH 6 0
BBX 4 5 1 11
BITMAP
60
B0
90
90
60
ENDCHAR
STARTCHAR 02DB
ENCODING 731
SWIDTH 288 0
DWIDTH 6 0
BBX 5 5 1 -5
BITMAP
60
C0
C0
C0
78
ENDCHAR
STARTCHAR 02DC
ENCODING 732
SWIDTH 384 0
DWIDTH 8 0
BBX 6 3 1 12
BITMAP
FC
FC
98
ENDCHAR
STARTCHAR 02DD
ENCODING 733
SWIDTH 384 0
DWIDTH 8 0
BBX 6 4 1 11
BITMAP
6C
CC
C8
98
ENDCHAR
STARTCHAR 0394
ENCODING 916
SWIDTH 720 0
DWIDTH 15 0
BBX 14 14 0 0
BITMAP
0100
0300
0380
0780
07C0
0EC0
0EE0
1C60
1C70
3870
3838
7038
7FFC
FFFC
ENDCHAR
STARTCHAR 03A9
ENCODING 937
SWIDTH 816 0
DWIDTH 17 0
BBX 15 14 1 0
BITMAP
07C0
1FF0
3FF8
783C
F01E
E00E
E00E
E00E
E00E
600C
701C
3838
FC7E
FC7E
ENDCHAR
STARTCHAR 03BC
ENCODING 956
SWIDTH 528 0
DWIDTH 11 0
BBX 8 14 1 -6
BITMAP
E3
E3
E3
E3
E7
EF
FF
FB
E0
E0
E0
E0
E0
E0
ENDCHAR
STARTCHAR 03C0
ENCODING 960
SWIDTH 720 0
DWIDTH 15 0
BBX 13 8 1 0
BITMAP
FFF8
FFF8
38E0
38E0
38E0
38E0
38E0
38E0
ENDCHAR
STARTCHAR 1E80
ENCODING 7808
SWIDTH 912 0
DWIDTH 19 0
BBX 17 20 1 1
BITMAP
038000
03C000
00E000
000000
000000
C08380
E18380
E1C380
E1C300
63E700
736700
776600
367600
363E00
3E3E00
3C3C00
1C1C00
1C1C00
180C00
180800
ENDCHAR
STARTCHAR 1E81
ENCODING 7809
SWIDTH 624 0
DWIDTH 13 0
BBX 12 15 0 0
BITMAP
0C00
0F00
0380
0000
0000
0000
E230
6730
6770
7FE0
3DE0
39E0
38E0
10C0
1040
ENDCHAR
STARTCHAR 1E82
ENCODING 7810
SWIDTH 912 0
DWIDTH 19 0
BBX 17 20 1 1
BITMAP
00C000
01C000
030000
000000
000000
C08380
E18380
E1C380
E1C300
63E700
736700
776600
367600
363E00
3E3E00
3C3C00
1C1C00
1C1C00
180C00
180800
ENDCHAR
STARTCHAR 1E83
ENCODING 7811
SWIDTH 624 0
DWIDTH 13 0
BBX 12 15 0 0
BITMAP
0100
0780
0E00
0000
0000
0000
E230
6730
6770
7FE0
3DE0
39E0
38E0
10C0
1040
ENDCHAR
STARTCHAR 1E84
ENCODING 7812
SWIDTH 864 0
DWIDTH 18 0
BBX 17 20 0 0
BITMAP
063000
063000
000000
000000
000000
E08380
E0C380
61C380
71C300
71E700
336700
336700
3F3600
3E3E00
1E3E00
1E1C00
1C1C00
1C1C00
0C0C00
080800
ENDCHAR
STARTCHAR 1E85
ENCODING 7813
SWIDTH 624 0
DWIDTH 13 0
BBX 13 15 0 0
BITMAP
18C0
18C0
0000
0000
0000
0000
E238
6730
6730
7FF0
3DE0
39E0
38E0
3060
1040
ENDCHAR
STARTCHAR 1EF2
ENCODING 7922
SWIDTH 576 0
DWIDTH 12 0
BBX 12 20 0 1
BITMAP
0C00
0F00
0300
0000
0000
E070
70E0
70E0
39C0
1D80
1F80
0F00
0600
0600
0600
0600
0600
0600
0600
0600
ENDCHAR
STARTCHAR 1EF3
ENCODING 7923
SWIDTH 480 0
DWIDTH 10 0
BBX 10 22 0 -7
BITMAP
1800
3C00
0E00
0000
0000
0000
E1C0
6380
7380
7300
3700
3E00
1E00
1E00
0C00
1C00
1800
3800
3000
7000
7000
6000
ENDCHAR
STARTCHAR 2013
ENCODING 8211
SWIDTH 528 0
DWIDTH 11 0
BBX 9 2 1 5
BITMAP
FF80
FF80
ENDCHAR
STARTCHAR 2014
ENCODING 8212
SWIDTH 768 0
DWIDTH 16 0
BBX 14 2 1 5
BITMAP
FFFC
FFFC
ENDCHAR
STARTCHAR 2018
ENCODING 8216
SWIDTH 240 0
DWIDTH 5 0
BBX 3 6 1 9
BITMAP
20
40
80
80
E0
E0
ENDCHAR
STARTCHAR 2019
ENCODING 8217
SWIDTH 240 0
DWIDTH 5 0
BBX 3 6 1 9
BITMAP
E0
E0
20
20
40
40
ENDCHAR
STARTCHAR 201A
ENCODING 8218
SWIDTH 240 0
DWIDTH 5 0
BBX 3 5 1 -4
BITMAP
E0
E0
20
60
40
ENDCHAR
STARTCHAR 201C
ENCODING 8220
SWIDTH 432 0
DWIDTH 9 0
BBX 7 6 1 9
BITMAP
44
44
88
88
EE
EE
ENDCHAR
STARTCHAR 201D
ENCODING 8221
SWIDTH 432 0
DWIDTH 9 0
BBX 7 6 1 9
BITMAP
EE
EE
22
22
44
44
ENDCHAR
STARTCHAR 201E
ENCODING 8222
SWIDTH 432 0
DWIDTH 9 0
BBX 7 5 1 -4
BITMAP
EE
EE
22
66
44
ENDCHAR
STARTCHAR 2020
ENCODING 8224
SWIDTH 624 0
DWIDTH 13 0
BBX 11 22 1 -7
BITMAP
0C00
0C00
0C00
0C00
0C00
0C00
FFE0
FFE0
0C00
0C00
0C00
0C00
0C00
0C00
0C00
0C00
0C00
0C00
0C00
0C00
0C00
0C00
ENDCHAR
STARTCHAR 2021
ENCODING 8225
SWIDTH 624 0
DWIDTH 13 0
BBX 11 22 1 -7
BITMAP
0C00
0C00
0C00
0C00
FFE0
FFE0
0C00
0C00
0C00
0C00
0C00
0C00
0C00
FFC0
FFC0
0C00
0C00
0C00
0C00
0C00
0C00
0C00
ENDCHAR
STARTCHAR 2022
ENCODING 8226
SWIDTH 336 0
DWIDTH 7 0
BBX 5 6 1 2
BITMAP
70
F8
F8
F8
F8
70
ENDCHAR
STARTCHAR 2026
ENCODING 8230
SWIDTH 720 0
DWIDTH 15 0
BBX 13 3 1 0
BITMAP
E738
E738
E738
ENDCHAR
STARTCHAR 2030
ENCODING 8240
SWIDTH 1008 0
DWIDTH 21 0
BBX 19 15 1 0
BITMAP
786000
FCC000
CCC000
FD8000
798000
030000
030000
060000
060000
0CE380
09FFE0
199E60
119E60
31FFE0
20F3C0
ENDCHAR
STARTCHAR 2039
ENCODING 8249
SWIDTH 288 0
DWIDTH 6 0
BBX 4 8 1 1
BITMAP
30
60
E0
C0
E0
E0
60
30
ENDCHAR
STARTCHAR 203A
ENCODING 8250
SWIDTH 288 0
DWIDTH 6 0
BBX 4 8 1 1
BITMAP
C0
E0
60
70
70
60
E0
C0
ENDCHAR
STARTCHAR 2044
ENCODING 8260
SWIDTH 144 0
DWIDTH 3 0
BBX 9 15 -3 0
BITMAP
0180
0100
0300
0200
0600
0400
0C00
0800
1800
1000
3000
2000
6000
4000
C000
ENDCHAR
STARTCHAR 2070
ENCODING 8304
SWIDTH 336 0
DWIDTH 7 0
BBX 5 6 1 11
BITMAP
70
D8
D8
D8
D8
70
ENDCHAR
STARTCHAR 2074
ENCODING 8308
SWIDTH 384 0
DWIDTH 8 0
BBX 6 6 1 11
BITMAP
18
38
78
D8
FC
18
ENDCHAR
STARTCHAR 2075
ENCODING 8309
SWIDTH 336 0
DWIDTH 7 0
BBX 5 6 1 11
BITMAP
F0
80
F0
18
F8
F0
ENDCHAR
STARTCHAR 2076
ENCODING 8310
SWIDTH 384 0
DWIDTH 8 0
BBX 6 6 1 12
BITMAP
38
60
78
CC
7C
78
ENDCHAR
STARTCHAR 2077
ENCODING 8311
SWIDTH 288 0
DWIDTH 6 0
BBX 4 6 1 11
BITMAP
F0
30
20
60
40
C0
ENDCHAR
STARTCHAR 2078
ENCODING 8312
SWIDTH 336 0
DWIDTH 7 0
BBX 5 6 1 11
BITMAP
70
D8
70
D8
D8
70
ENDCHAR
STARTCHAR 2079
ENCODING 8313
SWIDTH 336 0
DWIDTH 7 0
BBX 5 7 1 10
BITMAP
70
D8
D8
F8
18
70
40
ENDCHAR
STARTCHAR 2080
ENCODING 8320
SWIDTH 336 0
DWIDTH 7 0
BBX 5 6 1 -3
BITMAP
70
D8
D8
D8
D8
70
ENDCHAR
STARTCHAR 2081
ENCODING 8321
SWIDTH 240 0
DWIDTH 5 0
BBX 3 6 1 -3
BITMAP
60
E0
60
60
60
60
ENDCHAR
STARTCHAR 2082
ENCODING 8322
SWIDTH 336 0
DWIDTH 7 0
BBX 5 6 1 -3
BITMAP
70
78
18
30
60
F8
ENDCHAR
STARTCHAR 2083
ENCODING 8323
SWIDTH 336 0
DWIDTH 7 0
BBX 4 6 2 -3
BITMAP
E0
B0
E0
30
F0
E0
ENDCHAR
STARTCHAR 2084
ENCODING 8324
SWIDTH 384 0
DWIDTH 8 0
BBX 6 6 1 -3
BITMAP
18
38
78
D8
FC
18
ENDCHAR
STARTCHAR 2085
ENCODING 8325
SWIDTH 336 0
DWIDTH 7 0
BBX 5 6 1 -3
BITMAP
F0
80
F0
18
F8
F0
ENDCHAR
STARTCHAR 2086
ENCODING 8326
SWIDTH 384 0
DWIDTH 8 0
BBX 6 6 1 -2
BITMAP
38
60
78
CC
7C
78
ENDCHAR
STARTCHAR 2087
ENCODING 8327
SWIDTH 336 0
DWIDTH 7 0
BBX 5 6 1 -3
BITMAP
F8
10
30
60
60
C0
ENDCHAR
STARTCHAR 2088
ENCODING 8328
SWIDTH 336 0
DWIDTH 7 0
BBX 5 6 1 -3
BITMAP
70
D8
70
D8
D8
70
ENDCHAR
STARTCHAR 2089
ENCODING 8329
SWIDTH 336 0
DWIDTH 7 0
BBX 5 7 1 -4
BITMAP
70
D8
D8
F8
18
70
40
ENDCHAR
STARTCHAR 20AC
ENCODING 8364
SWIDTH 720 0
DWIDTH 15 0
BBX 13 15 1 0
BITMAP
03E0
0FF8
1F78
3C00
3800
7000
FF80
7000
FF80
7800
3800
3C00
1F78
0FF8
03E0
ENDCHAR
STARTCHAR 2113
ENCODING 8467
SWIDTH 528 0
DWIDTH 11 0
BBX 8 15 1 0
BITMAP
0E
0F
19
11
31
23
22
2E
78
F0
C0
40
40
63
3E
ENDCHAR
STARTCHAR 2122
ENCODING 8482
SWIDTH 720 0
DWIDTH 15 0
BBX 13 7 1 8
BITMAP
F010
FB10
6330
63B0
62F8
62D8
6658
ENDCHAR
STARTCHAR 2126
ENCODING 8486
SWIDTH 768 0
DWIDTH 16 0
BBX 15 15 0 0
BITMAP
07C0
1FF0
3FF8
7C3C
701E
F00E
E00E
E00E
E00E
E00E
700E
781C
FC3E
FE7E
FE7E
ENDCHAR
STARTCHAR 212E
ENCODING 8494
SWIDTH 816 0
DWIDTH 17 0
BBX 16 15 0 0
BITMAP
07E0
1E78
300C
2004
6006
6006
E007
FFFF
E000
6000
6000
6000
3008
1C38
07E0
ENDCHAR
STARTCHAR 2153
ENCODING 8531
SWIDTH 672 0
DWIDTH 14 0
BBX 12 15 1 0
BITMAP
60C0
E0C0
6180
6180
6300
6300
0600
0600
0CE0
0CB0
1830
18E0
3030
3030
60E0
ENDCHAR
STARTCHAR 2154
ENCODING 8532
SWIDTH 720 0
DWIDTH 15 0
BBX 13 15 1 0
BITMAP
7060
F860
18C0
30C0
6180
F980
0300
0300
0670
0658
0C18
0C70
1818
1818
3070
ENDCHAR
STARTCHAR 215B
ENCODING 8539
SWIDTH 720 0
DWIDTH 15 0
BBX 13 15 1 0
BITMAP
60C0
E0C0
6180
6180
6300
6300
0600
0600
0C70
0CD8
18D8
1870
30D8
30D8
6070
ENDCHAR
STARTCHAR 215C
ENCODING 8540
SWIDTH 720 0
DWIDTH 15 0
BBX 14 15 0 0
BITMAP
7060
1860
70C0
18C0
1980
F180
0300
0300
0638
066C
0C6C
0C38
186C
186C
3078
ENDCHAR
STARTCHAR 215D
ENCODING 8541
SWIDTH 768 0
DWIDTH 16 0
BBX 14 15 1 0
BITMAP
F0C0
80C0
F180
1980
1B00
F300
0600
0600
0C78
0CCC
18CC
1878
30EC
30CC
6078
ENDCHAR
STARTCHAR 215E
ENCODING 8542
SWIDTH 720 0
DWIDTH 15 0
BBX 13 15 1 0
BITMAP
F0C0
30C0
2180
6180
4300
C300
0600
0600
0C70
0CD8
18D8
1870
30D8
30D8
6070
ENDCHAR
STARTCHAR 2202
ENCODING 8706
SWIDTH 576 0
DWIDTH 12 0
BBX 10 15 1 0
BITMAP
2000
3800
3C00
0E00
0700
0380
3F80
7F80
E380
E1C0
C180
E180
F380
7F00
3E00
ENDCHAR
STARTCHAR 2206
ENCODING 8710
SWIDTH 720 0
DWIDTH 15 0
BBX 14 15 0 0
BITMAP
0100
0300
0380
0780
07C0
07C0
0EE0
0CE0
1C60
1C70
3830
3838
7038
7FFC
FFFC
ENDCHAR
STARTCHAR 220F
ENCODING 8719
SWIDTH 672 0
DWIDTH 14 0
BBX 12 15 1 0
BITMAP
FFF0
FFF0
FFF0
E070
E070
E070
E070
E070
E070
E070
E070
E070
E070
E070
E070
ENDCHAR
STARTCHAR 2211
ENCODING 8721
SWIDTH 528 0
DWIDTH 11 0
BBX 9 15 1 0
BITMAP
FF80
FF80
7F80
3800
1C00
0E00
0700
0300
0700
0E00
1C00
3800
7F80
FF80
FF80
ENDCHAR
STARTCHAR 2212
ENCODING 8722
SWIDTH 528 0
DWIDTH 11 0
BBX 9 2 1 6
BITMAP
FF80
FF80
ENDCHAR
STARTCHAR 2215
ENCODING 8725
SWIDTH 144 0
DWIDTH 3 0
BBX 9 15 -3 0
BITMAP
0180
0180
0300
0300
0600
0600
0C00
0C00
1800
1800
3000
2000
6000
4000
C000
ENDCHAR
STARTCHAR 2219
ENCODING 8729
SWIDTH 384 0
DWIDTH 8 0
BBX 4 4 2 3
BITMAP
60
F0
F0
60
ENDCHAR
STARTCHAR 221A
ENCODING 8730
SWIDTH 672 0
DWIDTH 14 0
BBX 13 14 1 -1
BITMAP
00F8
00F8
01C0
01C0
0180
0380
E300
6700
7600
3E00
3C00
1C00
1C00
1800
ENDCHAR
STARTCHAR 221E
ENCODING 8734
SWIDTH 576 0
DWIDTH 12 0
BBX 10 6 1 3
BITMAP
7380
FFC0
CCC0
CCC0
FFC0
7300
ENDCHAR
STARTCHAR 222B
ENCODING 8747
SWIDTH 384 0
DWIDTH 8 0
BBX 10 21 -1 -6
BITMAP
0780
0FC0
0E80
1C00
1C00
1C00
1C00
1C00
1C00
1C00
1C00
1C00
1C00
1C00
1C00
1C00
1C00
1C00
1C00
F800
F800
ENDCHAR
STARTCHAR 2248
ENCODING 8776
SWIDTH 480 0
DWIDTH 10 0
BBX 8 7 1 2
BITMAP
72
FE
8C
00
73
FE
8C
ENDCHAR
STARTCHAR 2260
ENCODING 8800
SWIDTH 480 0
DWIDTH 10 0
BBX 8 10 1 1
BITMAP
04
04
FF
FF
08
10
FF
FF
20
40
ENDCHAR
STARTCHAR 2264
ENCODING 8804
SWIDTH 480 0
DWIDTH 10 0
BBX 9 12 0 1
BITMAP
0080
0380
0F00
3C00
F000
7C00
1F80
0380
0080
0000
FF80
FF80
ENDCHAR
STARTCHAR 2265
ENCODING 8805
SWIDTH 480 0
DWIDTH 10 0
BBX 9 12 0 1
BITMAP
8000
E000
7800
1F00
0780
1F00
7C00
E000
8000
0000
FF80
FF80
ENDCHAR
STARTCHAR 25CA
ENCODING 9674
SWIDTH 720 0
DWIDTH 15 0
BBX 11 15 2 0
BITMAP
0400
0E00
1E00
3F00
3B80
71C0
E0E0
C0E0
E0E0
71C0
3B80
3F00
1F00
0E00
0400
ENDCHAR
STARTCHAR F8FF
ENCODING 63743
SWIDTH 576 0
DWIDTH 12 0
BBX 10 15 1 0
BITMAP
FFC0
FFC0
F1C0
E0C0
ECC0
FCC0
F9C0
FBC0
F3C0
FFC0
FFC0
F3C0
F3C0
FFC0
FFC0
ENDCHAR
STARTCHAR FB01
ENCODING 64257
SWIDTH 576 0
DWIDTH 12 0
BBX 9 15 1 0
BITMAP
1E00
3F00
7300
6000
6000
6000
FF80
FF80
6180
6180
6180
6180
6180
6180
6180
ENDCHAR
STARTCHAR FB02
ENCODING 64258
SWIDTH 528 0
DWIDTH 11 0
BBX 9 15 1 0
BITMAP
1D80
3F80
7780
6180
6180
6180
FD80
FD80
6180
6180
6180
6180
6180
6180
6180
ENDCHAR
ENDFONT
